<svg width="38" height="44" viewBox="0 0 38 44" fill="none" xmlns="http://www.w3.org/2000/svg">
<path fill-rule="evenodd" clip-rule="evenodd" d="M23.2862 20.8176C23.3506 20.8085 23.4128 20.7846 23.4692 20.7472C23.5255 20.7097 23.575 20.6596 23.6146 20.5996C23.6542 20.5396 23.6832 20.4711 23.6998 20.3979C23.7165 20.3247 23.7206 20.2483 23.7117 20.1733C23.7076 19.3139 23.9275 18.4734 24.3421 17.7635C24.736 17.0713 25.1773 16.4215 25.6658 15.814C26.3728 14.8579 27.1229 13.9503 27.9161 13.0912C28.3994 13.2164 28.8879 13.2901 29.3817 13.3121C29.4825 13.2896 29.5734 13.2267 29.6388 13.1343C29.7041 13.0419 29.7399 12.9258 29.7399 12.8059C29.7399 12.686 29.7041 12.5699 29.6388 12.4775C29.5734 12.3851 29.4825 12.3222 29.3817 12.2996C26.5766 11.9683 25.3491 9.83648 25.5066 7.72125C25.6298 6.55623 26.1353 5.49258 26.9167 4.75455C27.6981 4.01651 28.6943 3.66177 29.6953 3.7651C30.5984 3.74529 31.4725 4.13803 32.1315 4.85973C32.7905 5.58143 33.1823 6.57509 33.2236 7.6292C33.3148 8.17052 33.3138 8.72754 33.2205 9.26838C33.1273 9.80923 32.9437 10.3233 32.6803 10.7812C32.4168 11.2391 32.0787 11.6318 31.6852 11.9369C31.2917 12.242 30.8506 12.4534 30.3871 12.5592C30.3229 12.5689 30.261 12.5932 30.2049 12.6308C30.1488 12.6684 30.0996 12.7186 30.0601 12.7784C30.0206 12.8383 29.9916 12.9066 29.9747 12.9795C29.9578 13.0525 29.9533 13.1286 29.9616 13.2035C29.9699 13.2785 29.9907 13.3508 30.0229 13.4163C30.0551 13.4819 30.098 13.5393 30.1493 13.5855C30.2005 13.6317 30.259 13.6656 30.3214 13.6853C30.3838 13.7051 30.449 13.7103 30.5131 13.7006C31.0647 13.6417 31.5989 13.4613 32.089 13.1667C32.4798 13.6773 32.8318 14.2228 33.1448 14.8033C33.3339 15.1347 33.5073 15.466 33.6649 15.7974C33.8382 16.1453 34.0116 16.4951 34.1676 16.8449C34.55 17.715 34.8704 18.6165 35.1288 19.5492C35.1401 19.6224 35.1639 19.6922 35.1988 19.7545C35.2337 19.8167 35.279 19.87 35.3319 19.9113C35.3849 19.9525 35.4445 19.9809 35.5071 19.9946C35.5697 20.0083 35.634 20.0071 35.6962 19.991C35.8233 19.9637 35.936 19.8786 36.0096 19.7544C36.0831 19.6302 36.1115 19.4769 36.0885 19.3283C36.036 18.2482 35.8719 17.1795 35.6 16.1453C35.4889 15.6797 35.3357 15.2292 35.143 14.8015C34.9351 14.3824 34.6923 13.9884 34.4181 13.6251C34.0178 13.1514 33.5689 12.7371 33.0818 12.3917C33.6376 11.7516 34.0666 10.977 34.3385 10.1224C34.6105 9.26776 34.7189 8.35391 34.6561 7.44511C34.6501 6.68569 34.5156 5.93514 34.2603 5.23671C34.0049 4.53829 33.6338 3.90579 33.1683 3.37566C32.7028 2.84553 32.1521 2.42825 31.5479 2.14785C30.9437 1.86746 30.298 1.7295 29.648 1.74192C28.2555 1.69138 26.9013 2.27884 25.8746 3.37885C24.8479 4.47886 24.23 6.00423 24.153 7.6292C24.1279 8.66916 24.3634 9.69502 24.8307 10.5807C25.298 11.4664 25.9766 12.1732 26.7831 12.6144C26.1118 13.0216 25.4781 13.5083 24.892 14.0669C24.3336 14.6228 23.8506 15.2746 23.4596 15.9999C23.0966 16.6263 22.8454 17.3318 22.7208 18.0741C22.5963 18.8164 22.601 19.5804 22.7347 20.3206C22.7403 20.3968 22.7594 20.4708 22.7908 20.538C22.8221 20.6051 22.8651 20.664 22.917 20.7107C22.9688 20.7574 23.0284 20.7911 23.092 20.8095C23.1556 20.8279 23.2217 20.8306 23.2862 20.8176ZM13.2717 36.5262C13.0829 36.1161 12.8613 35.7277 12.6098 35.3665C12.214 34.8709 11.7642 34.4382 11.2719 34.0797C11.8248 33.4444 12.2523 32.6757 12.5245 31.8273C12.7967 30.979 12.907 30.0714 12.8477 29.1681C12.8458 28.4003 12.7119 27.6408 12.4542 26.9346C12.1964 26.2284 11.8199 25.5898 11.347 25.0566C10.8742 24.5234 10.3145 24.1065 9.70123 23.8306C9.08794 23.5546 8.43348 23.4253 7.77662 23.4501C6.38484 23.3899 5.02858 23.9713 4.00053 25.069C2.97249 26.1666 2.3551 27.6924 2.2816 29.3172C2.25513 30.3551 2.48836 31.3796 2.95271 32.265C3.41706 33.1505 4.09237 33.8585 4.89595 34.3024C4.22458 34.7101 3.59089 35.1975 3.00492 35.7567C2.45216 36.3135 1.97454 36.9645 1.58822 37.6879C1.22295 38.3169 0.970426 39.0257 0.845847 39.7717C0.721268 40.5178 0.727212 41.2855 0.863322 42.0288C0.87092 42.1034 0.89147 42.1754 0.923715 42.2404C0.95596 42.3054 0.999222 42.3621 1.05085 42.4069C1.10248 42.4517 1.1614 42.4837 1.22399 42.501C1.28658 42.5183 1.35153 42.5205 1.41487 42.5074C1.47924 42.4984 1.54143 42.4744 1.59779 42.437C1.65416 42.3995 1.70359 42.3494 1.74319 42.2894C1.78279 42.2294 1.81178 42.1609 1.82846 42.0877C1.84515 42.0145 1.84919 41.9381 1.84036 41.8631C1.83626 41.0037 2.05611 40.1632 2.4707 39.4533C2.86467 38.7599 3.30591 38.1094 3.79442 37.5019C4.50461 36.5508 5.25472 35.6438 6.04475 34.781C6.52486 34.9234 7.01338 34.9971 7.5103 35.002C7.61109 34.9794 7.702 34.9165 7.76738 34.8241C7.83276 34.7317 7.86853 34.6156 7.86853 34.4957C7.86853 34.3758 7.83276 34.2597 7.76738 34.1673C7.702 34.0749 7.61109 34.012 7.5103 33.9894C4.73679 33.6581 3.54071 31.5244 3.6983 29.4092C3.80666 28.2312 4.30591 27.1497 5.08896 26.3967C5.87201 25.6436 6.87648 25.2791 7.88693 25.3813C8.78919 25.3818 9.65571 25.7932 10.3025 26.5281C10.9492 27.2631 11.3252 28.2636 11.3507 29.3172C11.5353 30.4073 11.3424 31.5384 10.8142 32.4626C10.286 33.3867 9.46567 34.0285 8.53304 34.2472C8.46872 34.2552 8.40641 34.278 8.34971 34.3144C8.29301 34.3507 8.24306 34.3999 8.20274 34.4589C8.16243 34.518 8.13256 34.5859 8.11486 34.6585C8.09717 34.7312 8.09201 34.8073 8.09967 34.8823C8.10652 34.9574 8.12607 35.0302 8.15719 35.0965C8.18831 35.1627 8.23037 35.2211 8.28095 35.2682C8.33152 35.3152 8.3896 35.3501 8.45181 35.3708C8.51402 35.3915 8.57913 35.3975 8.64335 35.3885C9.19175 35.3315 9.72754 35.1492 10.2176 34.8547C10.6074 35.3652 10.9593 35.9114 11.2735 36.4931C11.4605 36.8183 11.6338 37.1552 11.7935 37.5038C11.9668 37.8351 12.1386 38.1849 12.2962 38.5347C12.6786 39.4061 12.999 40.3069 13.2575 41.2372C13.3046 41.3516 13.3831 41.4444 13.4805 41.5009C13.5779 41.5574 13.6886 41.5743 13.7952 41.5489C13.9017 41.5235 13.998 41.4574 14.0687 41.3609C14.1394 41.2644 14.1806 41.1432 14.1856 41.0163C14.1329 39.9368 13.9689 38.8687 13.6971 37.8351C13.5911 37.3847 13.4486 36.947 13.2717 36.5281M2.83315 18.9767C4.70262 20.5403 6.95792 21.3483 9.25636 21.2778C12.487 21.1693 15.71 20.8497 18.9101 20.3206C18.9688 20.3184 19.0266 20.3021 19.0797 20.2727C19.1327 20.2432 19.18 20.2012 19.2185 20.1493C19.257 20.0974 19.2859 20.0367 19.3033 19.9712C19.3207 19.9056 19.3264 19.8365 19.3198 19.7683C19.3158 19.7029 19.3008 19.6392 19.2757 19.5806C19.2505 19.5221 19.2157 19.4699 19.1732 19.4272C19.1307 19.3844 19.0815 19.3519 19.0282 19.3314C18.9749 19.311 18.9187 19.303 18.8628 19.308C15.7237 19.7192 12.5741 19.934 9.41394 19.9524C7.41046 19.9385 5.46519 19.1637 3.87164 17.7451C3.11212 16.8925 2.51592 15.8615 2.12233 14.7201C1.72874 13.5787 1.5467 12.3529 1.58822 11.1233C1.4882 8.67207 2.17364 6.26526 3.51077 4.3726C4.44428 3.29168 5.67906 2.63838 6.99027 2.53168C8.36551 2.34575 9.75861 2.57389 11.0371 3.19441C11.6685 3.49839 12.2361 3.95859 12.7008 4.54333C13.1654 5.12808 13.5161 5.8235 13.7287 6.58172C14.4851 9.11851 14.296 12.191 15.1784 14.656C15.5409 15.6575 16.1224 16.5338 16.863 17.1947C17.8921 18.1057 19.013 18.8656 20.2007 19.4572C20.2585 19.4918 20.3217 19.5126 20.3865 19.5183C20.4512 19.5241 20.5163 19.5147 20.578 19.4907C20.6396 19.4667 20.6965 19.4286 20.7454 19.3785C20.7943 19.3285 20.8341 19.2676 20.8626 19.1994C20.9015 19.0683 20.9009 18.9256 20.8607 18.795C20.8206 18.6643 20.7434 18.5537 20.642 18.4815C19.5205 17.8947 18.4629 17.1537 17.4918 16.2742C16.9175 15.7233 16.4687 15.0149 16.1854 14.2124C15.2872 11.1233 15.7599 7.44511 14.515 4.66715C13.8665 3.28695 12.8422 2.19915 11.6044 1.57623C10.1198 0.816548 8.4968 0.500228 6.88153 0.65577C5.16084 0.785481 3.53608 1.62747 2.29893 3.03057C0.696886 5.29885 -0.118496 8.18666 0.0139327 11.1233C-0.0143129 12.5904 0.222112 14.0481 0.707832 15.4014C1.19355 16.7548 1.91769 17.9718 2.83315 18.9767ZM35.5212 25.4715C34.304 24.0673 32.6932 23.2246 30.9859 23.0985C29.3704 22.9351 27.7457 23.2517 26.263 24.019C25.0228 24.6287 23.9958 25.711 23.3493 27.0896C22.0429 29.8879 22.5771 33.6213 21.6174 36.5999C21.329 37.4283 20.8626 38.1591 20.2622 38.7169C19.2912 39.5998 18.235 40.3468 17.1152 40.9426C17.0002 41.0134 16.913 41.1334 16.8719 41.2775C16.8308 41.4215 16.8389 41.5786 16.8946 41.7158C16.9582 41.8466 17.0611 41.9452 17.1833 41.9925C17.3056 42.0398 17.4386 42.0324 17.5564 41.9717C18.7421 41.3679 19.8625 40.6023 20.8941 39.6908C21.63 39.0317 22.2099 38.1628 22.5787 37.1706C23.4612 34.6872 23.2721 31.6515 24.0269 29.076C24.2388 28.2975 24.596 27.5836 25.0726 26.9857C25.5492 26.3879 26.1334 25.921 26.7831 25.6187C28.0485 25.0138 29.4243 24.7922 30.7826 24.9744C32.0938 25.0811 33.3286 25.7344 34.2621 26.8154C35.6069 28.6916 36.3082 31.0838 36.2304 33.5292C36.2847 34.7345 36.1254 35.9399 35.7623 37.0699C35.3992 38.1999 34.8402 39.23 34.1203 40.0958C32.5253 41.5091 30.5799 42.2774 28.578 42.2847C25.4209 42.2827 22.2665 42.0675 19.1307 41.6403C19.0669 41.6261 19.0012 41.6284 18.9382 41.6473C18.8753 41.6661 18.8166 41.7009 18.7666 41.7493C18.7165 41.7977 18.6762 41.8584 18.6485 41.927C18.6208 41.9957 18.6064 42.0707 18.6064 42.1466C18.6064 42.2225 18.6208 42.2975 18.6485 42.3662C18.6762 42.4348 18.7165 42.4955 18.7666 42.5439C18.8166 42.5923 18.8753 42.6271 18.9382 42.6459C19.0012 42.6648 19.0669 42.6671 19.1307 42.6529C22.3124 43.2088 25.5192 43.5604 28.7356 43.7022C31.0332 43.7721 33.2898 42.9658 35.1604 41.401C36.042 40.3806 36.7324 39.1571 37.1876 37.8083C37.6428 36.4595 37.853 35.0148 37.8047 33.566C37.9442 30.6281 37.1286 27.7369 35.5212 25.4715Z" fill="#DAC105"/>
<path fill-rule="evenodd" clip-rule="evenodd" d="M7.06905 8.6033H10.6746C10.7404 8.61698 10.8078 8.61521 10.873 8.59809C10.9382 8.58097 10.9998 8.54884 11.0543 8.50358C11.1087 8.45832 11.1548 8.40084 11.19 8.3345C11.2252 8.26816 11.2488 8.19429 11.2592 8.1172C11.2697 8.04012 11.2669 7.96137 11.251 7.88556C11.2352 7.80974 11.2065 7.73839 11.1667 7.67567C11.127 7.61294 11.0769 7.5601 11.0195 7.52024C10.962 7.48038 10.8984 7.4543 10.8322 7.44352C10.1703 7.2042 9.52424 6.96672 8.84662 6.80103C8.55654 6.72968 8.26189 6.68658 7.96571 6.67217C7.66677 6.64443 7.36641 6.64443 7.06747 6.67217C6.36884 6.78262 5.68702 6.97285 5.022 7.24286C4.96425 7.26124 4.91046 7.29366 4.86416 7.338C4.81786 7.38233 4.78009 7.43758 4.75332 7.50013C4.72655 7.56268 4.71138 7.63112 4.7088 7.70099C4.70622 7.77086 4.71629 7.84058 4.73835 7.90559C4.75407 8.03928 4.81403 8.16044 4.90537 8.24304C4.99671 8.32565 5.11214 8.36312 5.22687 8.34741C5.80993 8.36582 6.42294 8.52966 7.06905 8.6033ZM27.1455 31.0829H30.7511C31.3972 31.0829 32.0118 30.8435 32.6878 30.8067C32.7487 30.826 32.8124 30.8298 32.8747 30.8179C32.9369 30.8059 32.9963 30.7785 33.0487 30.7375C33.1011 30.6965 33.1454 30.6429 33.1786 30.5802C33.2117 30.5175 33.233 30.4472 33.2409 30.3741C33.2488 30.3011 33.2432 30.2269 33.2245 30.1566C33.2058 30.0863 33.1744 30.0215 33.1324 29.9665C33.0905 29.9116 33.0389 29.8678 32.9813 29.838C32.9236 29.8083 32.8612 29.7934 32.7981 29.7942C32.1335 29.5235 31.4472 29.3323 30.7495 29.2235C30.4511 29.1959 30.1513 29.1959 29.8528 29.2235C29.5568 29.247 29.2622 29.2901 28.9704 29.3524C28.298 29.5291 27.6372 29.75 26.9879 30.0151C26.8595 30.0422 26.7451 30.1264 26.6686 30.25C26.5922 30.3735 26.5598 30.5269 26.5782 30.6779C26.6115 30.8166 26.6886 30.9354 26.7938 31.0105C26.899 31.0856 27.0247 31.1115 27.1455 31.0829ZM4.32863 13.699C4.34153 13.7634 4.36532 13.8242 4.39859 13.8777C4.43186 13.9313 4.47395 13.9765 4.52238 14.0108C4.57082 14.0451 4.62463 14.0677 4.68066 14.0774C4.73668 14.0871 4.7938 14.0836 4.84866 14.0672H8.01299L8.9585 13.9567L11.2088 13.6254C11.273 13.6278 11.3369 13.6154 11.397 13.589C11.457 13.5625 11.5121 13.5225 11.5589 13.4712C11.6057 13.4199 11.6434 13.3584 11.6699 13.2901C11.6964 13.2218 11.711 13.148 11.7131 13.0731C11.7152 12.9981 11.7046 12.9234 11.682 12.8533C11.6593 12.7831 11.6251 12.7188 11.5812 12.6641C11.5373 12.6094 11.4846 12.5654 11.4261 12.5345C11.3676 12.5035 11.3045 12.4864 11.2404 12.484C10.4734 12.3207 9.70231 12.2042 8.92699 12.1342C8.59115 12.109 8.25428 12.109 7.91844 12.1342C7.58422 12.1459 7.25175 12.1952 6.92564 12.2815C6.17603 12.4691 5.44358 12.7403 4.73835 13.0915C4.67582 13.0955 4.61474 13.115 4.55917 13.1488C4.5036 13.1825 4.45482 13.2297 4.41606 13.2872C4.3773 13.3446 4.34946 13.4111 4.33439 13.4821C4.31931 13.5531 4.31735 13.627 4.32863 13.699ZM26.1054 35.479C26.1074 35.5556 26.1226 35.6309 26.15 35.7005C26.1775 35.7701 26.2166 35.8325 26.2651 35.8841C26.3137 35.9356 26.3706 35.9752 26.4325 36.0005C26.4944 36.0258 26.56 36.0363 26.6255 36.0313L28.8616 36.3626L29.8071 36.4731H32.9715C33.0554 36.494 33.1427 36.4858 33.2227 36.4497C33.3028 36.4135 33.372 36.3508 33.422 36.2693C33.472 36.1879 33.5006 36.0911 33.5043 35.991C33.5079 35.8908 33.4865 35.7916 33.4427 35.7054C33.4132 35.6487 33.3743 35.5995 33.3283 35.5606C33.2823 35.5217 33.2301 35.4939 33.1748 35.479C32.4453 35.1096 31.6862 34.8259 30.9087 34.6322C30.5777 34.6322 30.2468 34.5217 29.9001 34.4849C29.5534 34.4481 29.2383 34.4849 28.9073 34.4849C28.131 34.5524 27.3598 34.669 26.594 34.8347C26.5249 34.8368 26.457 34.8556 26.3944 34.8897C26.3317 34.9238 26.2758 34.9726 26.23 35.033C26.1842 35.0934 26.1495 35.1642 26.1281 35.2409C26.1066 35.3176 26.0989 35.3987 26.1054 35.479Z" fill="#DAC105"/>
</svg>
