<svg width="535" height="180" viewBox="0 0 535 180" fill="none" xmlns="http://www.w3.org/2000/svg">
<rect x="0.894043" y="0.584473" width="533.088" height="179.085" rx="6.3552" fill="#1F2937" stroke="#364153" stroke-width="0.5"/>
<rect x="1.40783" y="30.5216" width="532.06" height="148.342" rx="5.84141" fill="#111827" stroke="#364153" stroke-width="1.52758"/>
<mask id="path-3-inside-1_150_6" fill="white">
<path d="M1.93604 26.1743H532.94V152.788H1.93604V26.1743Z"/>
</mask>
<path d="M1.93604 26.1743H532.94V152.788H1.93604V26.1743Z" fill="#111827"/>
<path d="M1.93604 26.1743V26.6743H532.94V26.1743V25.6743H1.93604V26.1743Z" fill="#364153" mask="url(#path-3-inside-1_150_6)"/>
<path d="M20.2492 14.5354H19.3747C19.323 14.2839 19.2325 14.0629 19.1032 13.8725C18.9763 13.6821 18.8211 13.5222 18.6378 13.393C18.4568 13.2613 18.2558 13.1626 18.0348 13.0968C17.8139 13.0309 17.5835 12.998 17.3437 12.998C16.9065 12.998 16.5104 13.1085 16.1555 13.3295C15.8029 13.5504 15.522 13.876 15.3127 14.3062C15.1059 14.7364 15.0025 15.2641 15.0025 15.8894C15.0025 16.5146 15.1059 17.0424 15.3127 17.4725C15.522 17.9027 15.8029 18.2283 16.1555 18.4492C16.5104 18.6702 16.9065 18.7807 17.3437 18.7807C17.5835 18.7807 17.8139 18.7478 18.0348 18.682C18.2558 18.6161 18.4568 18.5186 18.6378 18.3893C18.8211 18.2577 18.9763 18.0966 19.1032 17.9062C19.2325 17.7135 19.323 17.4925 19.3747 17.2434H20.2492C20.1833 17.6124 20.0635 17.9427 19.8895 18.2342C19.7156 18.5256 19.4993 18.7736 19.2407 18.9782C18.9821 19.1803 18.6918 19.3343 18.3698 19.4401C18.0501 19.5458 17.7081 19.5987 17.3437 19.5987C16.7278 19.5987 16.1801 19.4483 15.7006 19.1474C15.2211 18.8465 14.8438 18.4187 14.5688 17.8639C14.2937 17.3092 14.1562 16.651 14.1562 15.8894C14.1562 15.1277 14.2937 14.4696 14.5688 13.9148C14.8438 13.36 15.2211 12.9322 15.7006 12.6313C16.1801 12.3304 16.7278 12.18 17.3437 12.18C17.7081 12.18 18.0501 12.2329 18.3698 12.3387C18.6918 12.4445 18.9821 12.5996 19.2407 12.8041C19.4993 13.0063 19.7156 13.2531 19.8895 13.5446C20.0635 13.8337 20.1833 14.164 20.2492 14.5354ZM21.5494 19.5V14.084H22.3533V14.9021H22.4097C22.5084 14.6341 22.6871 14.4167 22.9457 14.2498C23.2042 14.0829 23.4957 13.9994 23.8201 13.9994C23.8812 13.9994 23.9576 14.0006 24.0493 14.003C24.141 14.0053 24.2103 14.0088 24.2573 14.0135V14.8598C24.2291 14.8527 24.1645 14.8421 24.0634 14.828C23.9647 14.8116 23.8601 14.8034 23.7496 14.8034C23.4863 14.8034 23.2513 14.8586 23.0444 14.9691C22.8399 15.0772 22.6777 15.2277 22.5578 15.4204C22.4403 15.6108 22.3815 15.8282 22.3815 16.0727V19.5H21.5494ZM27.3497 19.6128C26.8278 19.6128 26.3777 19.4976 25.9992 19.2673C25.6231 19.0346 25.3328 18.7102 25.1283 18.2941C24.9261 17.8757 24.825 17.3891 24.825 16.8343C24.825 16.2796 24.9261 15.7906 25.1283 15.3675C25.3328 14.942 25.6172 14.6106 25.9816 14.3732C26.3483 14.1334 26.7761 14.0135 27.265 14.0135C27.5471 14.0135 27.8257 14.0605 28.1007 14.1546C28.3757 14.2486 28.6261 14.4014 28.8517 14.613C29.0774 14.8222 29.2572 15.0995 29.3912 15.4451C29.5252 15.7906 29.5922 16.2161 29.5922 16.7215V17.0741H25.4174V16.3548H28.746C28.746 16.0492 28.6848 15.7765 28.5626 15.5368C28.4427 15.297 28.2711 15.1078 28.0478 14.9691C27.8268 14.8304 27.5659 14.761 27.265 14.761C26.9336 14.761 26.6468 14.8433 26.4047 15.0079C26.1649 15.1701 25.9804 15.3816 25.8511 15.6425C25.7218 15.9035 25.6572 16.1832 25.6572 16.4817V16.9613C25.6572 17.3703 25.7277 17.717 25.8687 18.0014C26.0121 18.2835 26.2108 18.4986 26.4646 18.6467C26.7185 18.7924 27.0135 18.8653 27.3497 18.8653C27.5683 18.8653 27.7657 18.8348 27.942 18.7736C28.1207 18.7102 28.2746 18.6161 28.4039 18.4916C28.5332 18.3646 28.6331 18.2071 28.7036 18.0191L29.5076 18.2447C29.423 18.5174 29.2807 18.7572 29.0809 18.964C28.8811 19.1686 28.6343 19.3284 28.3405 19.4436C28.0466 19.5564 27.7164 19.6128 27.3497 19.6128ZM32.4518 19.6269C32.1086 19.6269 31.7971 19.5623 31.5174 19.433C31.2377 19.3014 31.0155 19.1121 30.851 18.8653C30.6864 18.6161 30.6042 18.3153 30.6042 17.9627C30.6042 17.6524 30.6653 17.4008 30.7875 17.2081C30.9098 17.013 31.0731 16.8602 31.2776 16.7497C31.4821 16.6392 31.7078 16.557 31.9546 16.5029C32.2038 16.4465 32.4541 16.4018 32.7057 16.3689C33.0348 16.3266 33.3016 16.2949 33.5061 16.2737C33.7129 16.2502 33.8634 16.2114 33.9574 16.1573C34.0538 16.1033 34.102 16.0093 34.102 15.8753V15.8471C34.102 15.4992 34.0068 15.2288 33.8164 15.0361C33.6283 14.8433 33.3427 14.7469 32.9595 14.7469C32.5623 14.7469 32.2508 14.8339 32.0251 15.0079C31.7995 15.1818 31.6408 15.3675 31.5491 15.565L30.7593 15.2829C30.9004 14.9538 31.0884 14.6976 31.3235 14.5142C31.5609 14.3285 31.8195 14.1992 32.0992 14.1264C32.3813 14.0511 32.6587 14.0135 32.9313 14.0135C33.1053 14.0135 33.3051 14.0347 33.5308 14.077C33.7588 14.117 33.9786 14.2004 34.1901 14.3273C34.404 14.4543 34.5815 14.6459 34.7225 14.9021C34.8636 15.1583 34.9341 15.5015 34.9341 15.9317V19.5H34.102V18.7666H34.0597C34.0032 18.8841 33.9092 19.0099 33.7776 19.1439C33.6459 19.2779 33.4708 19.3919 33.2522 19.4859C33.0336 19.5799 32.7668 19.6269 32.4518 19.6269ZM32.5787 18.8794C32.9078 18.8794 33.1852 18.8148 33.4109 18.6855C33.6389 18.5562 33.8105 18.3893 33.9257 18.1848C34.0432 17.9803 34.102 17.7652 34.102 17.5395V16.7779C34.0667 16.8202 33.9891 16.859 33.8693 16.8943C33.7517 16.9272 33.6154 16.9566 33.4602 16.9824C33.3074 17.0059 33.1582 17.0271 33.0124 17.0459C32.869 17.0624 32.7527 17.0765 32.6634 17.0882C32.4471 17.1164 32.2449 17.1623 32.0569 17.2257C31.8712 17.2868 31.7207 17.3797 31.6056 17.5043C31.4927 17.6265 31.4363 17.7934 31.4363 18.005C31.4363 18.2941 31.5433 18.5127 31.7572 18.6608C31.9734 18.8066 32.2473 18.8794 32.5787 18.8794ZM38.8083 14.084V14.7893H36.0016V14.084H38.8083ZM36.8196 12.7865H37.6518V17.9486C37.6518 18.1836 37.6859 18.3599 37.754 18.4775C37.8246 18.5926 37.9139 18.6702 38.022 18.7102C38.1325 18.7478 38.2488 18.7666 38.3711 18.7666C38.4628 18.7666 38.538 18.7619 38.5967 18.7525C38.6555 18.7407 38.7025 18.7313 38.7378 18.7243L38.907 19.4718C38.8506 19.4929 38.7719 19.5141 38.6708 19.5353C38.5697 19.5588 38.4416 19.5705 38.2865 19.5705C38.0514 19.5705 37.821 19.52 37.5954 19.4189C37.372 19.3178 37.1863 19.1639 37.0383 18.957C36.8925 18.7501 36.8196 18.4892 36.8196 18.1742V12.7865ZM42.2726 19.6128C41.7508 19.6128 41.3006 19.4976 40.9222 19.2673C40.546 19.0346 40.2557 18.7102 40.0512 18.2941C39.8491 17.8757 39.748 17.3891 39.748 16.8343C39.748 16.2796 39.8491 15.7906 40.0512 15.3675C40.2557 14.942 40.5402 14.6106 40.9045 14.3732C41.2712 14.1334 41.699 14.0135 42.188 14.0135C42.4701 14.0135 42.7486 14.0605 43.0237 14.1546C43.2987 14.2486 43.549 14.4014 43.7747 14.613C44.0004 14.8222 44.1802 15.0995 44.3142 15.4451C44.4482 15.7906 44.5152 16.2161 44.5152 16.7215V17.0741H40.3404V16.3548H43.6689C43.6689 16.0492 43.6078 15.7765 43.4856 15.5368C43.3657 15.297 43.1941 15.1078 42.9708 14.9691C42.7498 14.8304 42.4889 14.761 42.188 14.761C41.8565 14.761 41.5698 14.8433 41.3276 15.0079C41.0879 15.1701 40.9033 15.3816 40.7741 15.6425C40.6448 15.9035 40.5801 16.1832 40.5801 16.4817V16.9613C40.5801 17.3703 40.6506 17.717 40.7917 18.0014C40.9351 18.2835 41.1337 18.4986 41.3876 18.6467C41.6415 18.7924 41.9365 18.8653 42.2726 18.8653C42.4912 18.8653 42.6887 18.8348 42.865 18.7736C43.0436 18.7102 43.1976 18.6161 43.3269 18.4916C43.4562 18.3646 43.5561 18.2071 43.6266 18.0191L44.4305 18.2447C44.3459 18.5174 44.2037 18.7572 44.0039 18.964C43.8041 19.1686 43.5573 19.3284 43.2634 19.4436C42.9696 19.5564 42.6393 19.6128 42.2726 19.6128ZM49.4057 16.242V19.5H48.5736V14.084H49.3775V14.9303H49.448C49.575 14.6553 49.7677 14.4343 50.0263 14.2674C50.2849 14.0982 50.6187 14.0135 51.0277 14.0135C51.3944 14.0135 51.7153 14.0888 51.9903 14.2392C52.2653 14.3873 52.4792 14.613 52.632 14.9162C52.7848 15.2171 52.8612 15.5979 52.8612 16.0586V19.5H52.0291V16.115C52.0291 15.6896 51.9186 15.3581 51.6976 15.1207C51.4767 14.8809 51.1734 14.761 50.7879 14.761C50.5223 14.761 50.2849 14.8186 50.0757 14.9338C49.8688 15.049 49.7054 15.2171 49.5856 15.438C49.4657 15.659 49.4057 15.927 49.4057 16.242ZM56.6526 19.6128C56.1307 19.6128 55.6806 19.4976 55.3021 19.2673C54.926 19.0346 54.6357 18.7102 54.4312 18.2941C54.229 17.8757 54.1279 17.3891 54.1279 16.8343C54.1279 16.2796 54.229 15.7906 54.4312 15.3675C54.6357 14.942 54.9201 14.6106 55.2845 14.3732C55.6512 14.1334 56.079 14.0135 56.5679 14.0135C56.85 14.0135 57.1286 14.0605 57.4036 14.1546C57.6786 14.2486 57.929 14.4014 58.1546 14.613C58.3803 14.8222 58.5601 15.0995 58.6941 15.4451C58.8281 15.7906 58.8951 16.2161 58.8951 16.7215V17.0741H54.7203V16.3548H58.0489C58.0489 16.0492 57.9877 15.7765 57.8655 15.5368C57.7456 15.297 57.574 15.1078 57.3507 14.9691C57.1297 14.8304 56.8688 14.761 56.5679 14.761C56.2365 14.761 55.9497 14.8433 55.7076 15.0079C55.4678 15.1701 55.2833 15.3816 55.154 15.6425C55.0247 15.9035 54.9601 16.1832 54.9601 16.4817V16.9613C54.9601 17.3703 55.0306 17.717 55.1716 18.0014C55.315 18.2835 55.5137 18.4986 55.7675 18.6467C56.0214 18.7924 56.3164 18.8653 56.6526 18.8653C56.8712 18.8653 57.0686 18.8348 57.2449 18.7736C57.4236 18.7102 57.5776 18.6161 57.7068 18.4916C57.8361 18.3646 57.936 18.2071 58.0065 18.0191L58.8105 18.2447C58.7259 18.5174 58.5836 18.7572 58.3838 18.964C58.184 19.1686 57.9372 19.3284 57.6434 19.4436C57.3495 19.5564 57.0193 19.6128 56.6526 19.6128ZM61.388 19.5L59.7378 14.084H60.6123L61.7829 18.2306H61.8393L62.9959 14.084H63.8844L65.0268 18.2165H65.0833L66.2539 14.084H67.1283L65.4782 19.5H64.6601L63.4754 15.3393H63.3908L62.206 19.5H61.388ZM72.2481 19.5L70.5979 14.084H71.4724L72.643 18.2306H72.6994L73.856 14.084H74.7445L75.8869 18.2165H75.9434L77.114 14.084H77.9884L76.3383 19.5H75.5202L74.3355 15.3393H74.2509L73.0661 19.5H72.2481ZM81.1046 19.6128C80.6156 19.6128 80.1866 19.4965 79.8176 19.2638C79.4509 19.031 79.1641 18.7055 78.9572 18.2871C78.7527 17.8686 78.6505 17.3797 78.6505 16.8202C78.6505 16.2561 78.7527 15.7636 78.9572 15.3428C79.1641 14.9221 79.4509 14.5953 79.8176 14.3626C80.1866 14.1299 80.6156 14.0135 81.1046 14.0135C81.5935 14.0135 82.0213 14.1299 82.388 14.3626C82.7571 14.5953 83.0439 14.9221 83.2484 15.3428C83.4552 15.7636 83.5587 16.2561 83.5587 16.8202C83.5587 17.3797 83.4552 17.8686 83.2484 18.2871C83.0439 18.7055 82.7571 19.031 82.388 19.2638C82.0213 19.4965 81.5935 19.6128 81.1046 19.6128ZM81.1046 18.8653C81.476 18.8653 81.7815 18.7701 82.0213 18.5797C82.2611 18.3893 82.4386 18.139 82.5537 17.8287C82.6689 17.5184 82.7265 17.1822 82.7265 16.8202C82.7265 16.4582 82.6689 16.1209 82.5537 15.8083C82.4386 15.4956 82.2611 15.2429 82.0213 15.0502C81.7815 14.8574 81.476 14.761 81.1046 14.761C80.7331 14.761 80.4276 14.8574 80.1878 15.0502C79.948 15.2429 79.7705 15.4956 79.6554 15.8083C79.5402 16.1209 79.4826 16.4582 79.4826 16.8202C79.4826 17.1822 79.5402 17.5184 79.6554 17.8287C79.7705 18.139 79.948 18.3893 80.1878 18.5797C80.4276 18.7701 80.7331 18.8653 81.1046 18.8653ZM84.8289 19.5V14.084H85.6328V14.9021H85.6892C85.788 14.6341 85.9666 14.4167 86.2252 14.2498C86.4838 14.0829 86.7753 13.9994 87.0997 13.9994C87.1608 13.9994 87.2372 14.0006 87.3288 14.003C87.4205 14.0053 87.4899 14.0088 87.5369 14.0135V14.8598C87.5087 14.8527 87.444 14.8421 87.3429 14.828C87.2442 14.8116 87.1396 14.8034 87.0291 14.8034C86.7659 14.8034 86.5308 14.8586 86.3239 14.9691C86.1194 15.0772 85.9572 15.2277 85.8373 15.4204C85.7198 15.6108 85.661 15.8282 85.661 16.0727V19.5H84.8289ZM89.299 17.5254L89.2849 16.4958H89.4541L91.8236 14.084H92.8532L90.3286 16.6369H90.2581L89.299 17.5254ZM88.5233 19.5V12.2787H89.3554V19.5H88.5233ZM91.9647 19.5L89.8491 16.8202L90.4414 16.242L93.0225 19.5H91.9647ZM97.7605 15.297L97.013 15.5086C96.966 15.384 96.8967 15.2629 96.805 15.1454C96.7157 15.0255 96.5934 14.9268 96.4383 14.8492C96.2831 14.7716 96.0845 14.7328 95.8424 14.7328C95.511 14.7328 95.2347 14.8092 95.0138 14.962C94.7952 15.1125 94.6859 15.304 94.6859 15.5368C94.6859 15.7436 94.7611 15.907 94.9115 16.0269C95.062 16.1468 95.297 16.2467 95.6167 16.3266L96.4207 16.524C96.9049 16.6416 97.2657 16.8214 97.5031 17.0635C97.7406 17.3033 97.8593 17.6124 97.8593 17.9909C97.8593 18.3012 97.7699 18.5785 97.5913 18.823C97.415 19.0675 97.1682 19.2602 96.8508 19.4013C96.5335 19.5423 96.1644 19.6128 95.7437 19.6128C95.1913 19.6128 94.7341 19.4929 94.372 19.2532C94.01 19.0134 93.7809 18.6632 93.6845 18.2024L94.4743 18.005C94.5495 18.2965 94.6917 18.5151 94.901 18.6608C95.1125 18.8066 95.3887 18.8794 95.7296 18.8794C96.1174 18.8794 96.4254 18.7971 96.6534 18.6326C96.8837 18.4657 96.9989 18.2659 96.9989 18.0332C96.9989 17.8451 96.9331 17.6876 96.8015 17.5607C96.6698 17.4314 96.4677 17.335 96.195 17.2716L95.2923 17.06C94.7963 16.9425 94.432 16.7603 94.1993 16.5135C93.9689 16.2643 93.8537 15.9528 93.8537 15.5791C93.8537 15.2735 93.9395 15.0032 94.1111 14.7681C94.2851 14.533 94.5213 14.3485 94.8199 14.2145C95.1207 14.0805 95.4616 14.0135 95.8424 14.0135C96.3783 14.0135 96.7991 14.1311 97.1047 14.3661C97.4126 14.6012 97.6313 14.9115 97.7605 15.297ZM99.1119 21.531V14.084H99.9158V14.9444H100.015C100.076 14.8504 100.16 14.7305 100.268 14.5847C100.379 14.4367 100.536 14.305 100.741 14.1898C100.948 14.0723 101.227 14.0135 101.58 14.0135C102.036 14.0135 102.438 14.1275 102.786 14.3556C103.134 14.5836 103.405 14.9068 103.601 15.3252C103.796 15.7436 103.893 16.2373 103.893 16.8061C103.893 17.3797 103.796 17.8769 103.601 18.2976C103.405 18.7161 103.135 19.0404 102.79 19.2708C102.444 19.4988 102.046 19.6128 101.594 19.6128C101.246 19.6128 100.968 19.5552 100.759 19.4401C100.549 19.3225 100.388 19.1897 100.275 19.0416C100.163 18.8912 100.076 18.7666 100.015 18.6679H99.944V21.531H99.1119ZM99.9299 16.792C99.9299 17.201 99.9899 17.5619 100.11 17.8745C100.23 18.1848 100.405 18.4281 100.635 18.6044C100.865 18.7783 101.148 18.8653 101.481 18.8653C101.829 18.8653 102.12 18.7736 102.352 18.5903C102.587 18.4046 102.764 18.1554 102.881 17.8428C103.001 17.5278 103.061 17.1775 103.061 16.792C103.061 16.4112 103.002 16.068 102.885 15.7624C102.77 15.4545 102.594 15.2112 102.359 15.0325C102.127 14.8515 101.834 14.761 101.481 14.761C101.143 14.761 100.858 14.8468 100.628 15.0184C100.398 15.1877 100.224 15.4251 100.106 15.7307C99.9887 16.0339 99.9299 16.3877 99.9299 16.792ZM106.756 19.6269C106.413 19.6269 106.102 19.5623 105.822 19.433C105.542 19.3014 105.32 19.1121 105.155 18.8653C104.991 18.6161 104.909 18.3153 104.909 17.9627C104.909 17.6524 104.97 17.4008 105.092 17.2081C105.214 17.013 105.378 16.8602 105.582 16.7497C105.787 16.6392 106.012 16.557 106.259 16.5029C106.508 16.4465 106.759 16.4018 107.01 16.3689C107.339 16.3266 107.606 16.2949 107.811 16.2737C108.017 16.2502 108.168 16.2114 108.262 16.1573C108.358 16.1033 108.406 16.0093 108.406 15.8753V15.8471C108.406 15.4992 108.311 15.2288 108.121 15.0361C107.933 14.8433 107.647 14.7469 107.264 14.7469C106.867 14.7469 106.555 14.8339 106.33 15.0079C106.104 15.1818 105.945 15.3675 105.854 15.565L105.064 15.2829C105.205 14.9538 105.393 14.6976 105.628 14.5142C105.865 14.3285 106.124 14.1992 106.404 14.1264C106.686 14.0511 106.963 14.0135 107.236 14.0135C107.41 14.0135 107.61 14.0347 107.835 14.077C108.063 14.117 108.283 14.2004 108.495 14.3273C108.709 14.4543 108.886 14.6459 109.027 14.9021C109.168 15.1583 109.239 15.5015 109.239 15.9317V19.5H108.406V18.7666H108.364C108.308 18.8841 108.214 19.0099 108.082 19.1439C107.95 19.2779 107.775 19.3919 107.557 19.4859C107.338 19.5799 107.071 19.6269 106.756 19.6269ZM106.883 18.8794C107.212 18.8794 107.49 18.8148 107.715 18.6855C107.943 18.5562 108.115 18.3893 108.23 18.1848C108.348 17.9803 108.406 17.7652 108.406 17.5395V16.7779C108.371 16.8202 108.294 16.859 108.174 16.8943C108.056 16.9272 107.92 16.9566 107.765 16.9824C107.612 17.0059 107.463 17.0271 107.317 17.0459C107.174 17.0624 107.057 17.0765 106.968 17.0882C106.752 17.1164 106.549 17.1623 106.361 17.2257C106.176 17.2868 106.025 17.3797 105.91 17.5043C105.797 17.6265 105.741 17.7934 105.741 18.005C105.741 18.2941 105.848 18.5127 106.062 18.6608C106.278 18.8066 106.552 18.8794 106.883 18.8794ZM112.958 19.6128C112.45 19.6128 112.013 19.4929 111.646 19.2532C111.279 19.0134 110.997 18.6831 110.8 18.2624C110.602 17.8416 110.504 17.3609 110.504 16.8202C110.504 16.2702 110.605 15.7848 110.807 15.364C111.011 14.9409 111.296 14.6106 111.66 14.3732C112.027 14.1334 112.455 14.0135 112.944 14.0135C113.324 14.0135 113.668 14.084 113.973 14.2251C114.279 14.3661 114.529 14.5636 114.724 14.8175C114.919 15.0713 115.04 15.3675 115.087 15.706H114.255C114.192 15.4592 114.051 15.2406 113.832 15.0502C113.616 14.8574 113.324 14.761 112.958 14.761C112.633 14.761 112.349 14.8457 112.104 15.0149C111.862 15.1818 111.673 15.4181 111.537 15.7236C111.403 16.0269 111.336 16.383 111.336 16.792C111.336 17.2104 111.401 17.5748 111.533 17.8851C111.667 18.1954 111.855 18.4363 112.097 18.6079C112.342 18.7795 112.629 18.8653 112.958 18.8653C113.174 18.8653 113.37 18.8277 113.546 18.7525C113.723 18.6773 113.872 18.5691 113.994 18.4281C114.117 18.2871 114.204 18.1178 114.255 17.9203H115.087C115.04 18.24 114.924 18.528 114.738 18.7842C114.555 19.0381 114.312 19.2403 114.008 19.3907C113.708 19.5388 113.357 19.6128 112.958 19.6128ZM118.575 19.6128C118.053 19.6128 117.603 19.4976 117.224 19.2673C116.848 19.0346 116.558 18.7102 116.353 18.2941C116.151 17.8757 116.05 17.3891 116.05 16.8343C116.05 16.2796 116.151 15.7906 116.353 15.3675C116.558 14.942 116.842 14.6106 117.206 14.3732C117.573 14.1334 118.001 14.0135 118.49 14.0135C118.772 14.0135 119.051 14.0605 119.326 14.1546C119.601 14.2486 119.851 14.4014 120.077 14.613C120.302 14.8222 120.482 15.0995 120.616 15.4451C120.75 15.7906 120.817 16.2161 120.817 16.7215V17.0741H116.642V16.3548H119.971C119.971 16.0492 119.91 15.7765 119.788 15.5368C119.668 15.297 119.496 15.1078 119.273 14.9691C119.052 14.8304 118.791 14.761 118.49 14.761C118.159 14.761 117.872 14.8433 117.63 15.0079C117.39 15.1701 117.205 15.3816 117.076 15.6425C116.947 15.9035 116.882 16.1832 116.882 16.4817V16.9613C116.882 17.3703 116.953 17.717 117.094 18.0014C117.237 18.2835 117.436 18.4986 117.69 18.6467C117.943 18.7924 118.238 18.8653 118.575 18.8653C118.793 18.8653 118.991 18.8348 119.167 18.7736C119.346 18.7102 119.5 18.6161 119.629 18.4916C119.758 18.3646 119.858 18.2071 119.929 18.0191L120.732 18.2447C120.648 18.5174 120.506 18.7572 120.306 18.964C120.106 19.1686 119.859 19.3284 119.565 19.4436C119.272 19.5564 118.941 19.6128 118.575 19.6128Z" fill="#F2F2F2"/>
<rect x="15.1058" y="52.2637" width="504.664" height="25.3396" rx="2.33396" fill="#1F2937" stroke="#364153" stroke-width="0.5"/>
<path d="M22.226 60.9567H23.3124L25.867 67.1963H25.9551L28.5097 60.9567H29.5962V68.4736H28.7446V62.7625H28.6712L26.3222 68.4736H25.5L23.1509 62.7625H23.0775V68.4736H22.226V60.9567ZM32.9628 68.6058C32.6056 68.6058 32.2814 68.5385 31.9902 68.4039C31.699 68.2669 31.4677 68.0699 31.2965 67.813C31.1252 67.5536 31.0395 67.2404 31.0395 66.8733C31.0395 66.5503 31.1032 66.2885 31.2304 66.0879C31.3576 65.8848 31.5277 65.7257 31.7406 65.6107C31.9535 65.4957 32.1884 65.4101 32.4453 65.3538C32.7047 65.2951 32.9653 65.2486 33.2271 65.2143C33.5697 65.1703 33.8474 65.1372 34.0603 65.1152C34.2756 65.0908 34.4322 65.0504 34.5301 64.9941C34.6304 64.9378 34.6806 64.8399 34.6806 64.7005V64.6711C34.6806 64.309 34.5815 64.0276 34.3833 63.8269C34.1875 63.6263 33.8902 63.5259 33.4914 63.5259C33.0778 63.5259 32.7536 63.6165 32.5187 63.7975C32.2838 63.9786 32.1186 64.1719 32.0232 64.3775L31.201 64.0838C31.3478 63.7413 31.5436 63.4746 31.7883 63.2837C32.0354 63.0904 32.3046 62.9558 32.5958 62.8799C32.8894 62.8016 33.1782 62.7625 33.462 62.7625C33.6431 62.7625 33.8511 62.7845 34.086 62.8286C34.3233 62.8702 34.5521 62.957 34.7723 63.0892C34.995 63.2213 35.1797 63.4207 35.3266 63.6874C35.4734 63.9542 35.5468 64.3114 35.5468 64.7592V68.4736H34.6806V67.7102H34.6365C34.5778 67.8325 34.4799 67.9634 34.3429 68.1029C34.2059 68.2424 34.0236 68.3611 33.796 68.459C33.5684 68.5568 33.2907 68.6058 32.9628 68.6058ZM33.095 67.8276C33.4375 67.8276 33.7263 67.7604 33.9612 67.6258C34.1985 67.4912 34.3771 67.3175 34.497 67.1046C34.6194 66.8917 34.6806 66.6678 34.6806 66.4329V65.6401C34.6439 65.6841 34.5631 65.7245 34.4383 65.7612C34.316 65.7955 34.1741 65.8261 34.0126 65.853C33.8535 65.8774 33.6981 65.8995 33.5464 65.919C33.3972 65.9362 33.276 65.9508 33.183 65.9631C32.9579 65.9924 32.7475 66.0402 32.5517 66.1062C32.3584 66.1698 32.2018 66.2665 32.0819 66.3962C31.9645 66.5234 31.9057 66.6972 31.9057 66.9174C31.9057 67.2184 32.0171 67.4459 32.2398 67.6001C32.4649 67.7518 32.7499 67.8276 33.095 67.8276ZM37.1278 68.4736V62.8359H37.9647V63.6874H38.0234C38.1262 63.4085 38.3121 63.1821 38.5813 63.0084C38.8504 62.8347 39.1539 62.7478 39.4915 62.7478C39.5552 62.7478 39.6347 62.749 39.7301 62.7515C39.8255 62.7539 39.8977 62.7576 39.9467 62.7625V63.6434C39.9173 63.636 39.85 63.625 39.7448 63.6104C39.642 63.5932 39.5331 63.5847 39.4181 63.5847C39.1441 63.5847 38.8994 63.6422 38.6841 63.7572C38.4712 63.8697 38.3023 64.0263 38.1775 64.227C38.0552 64.4252 37.994 64.6515 37.994 64.906V68.4736H37.1278ZM41.7809 66.4182L41.7663 65.3465H41.9424L44.409 62.8359H45.4807L42.8527 65.4933H42.7793L41.7809 66.4182ZM40.9735 68.4736V60.9567H41.8397V68.4736H40.9735ZM44.5558 68.4736L42.3535 65.6841L42.9702 65.0822L45.6569 68.4736H44.5558ZM48.7272 68.5911C48.184 68.5911 47.7154 68.4712 47.3214 68.2314C46.9299 67.9891 46.6277 67.6515 46.4148 67.2184C46.2044 66.7828 46.0992 66.2763 46.0992 65.6988C46.0992 65.1213 46.2044 64.6124 46.4148 64.1719C46.6277 63.729 46.9238 63.384 47.3031 63.1369C47.6848 62.8873 48.1301 62.7625 48.6391 62.7625C48.9327 62.7625 49.2227 62.8114 49.509 62.9093C49.7953 63.0072 50.0559 63.1662 50.2908 63.3865C50.5257 63.6042 50.7129 63.893 50.8523 64.2527C50.9918 64.6124 51.0615 65.0553 51.0615 65.5814V65.9484H46.7158V65.1996H50.1807C50.1807 64.8815 50.117 64.5977 49.9898 64.3481C49.865 64.0985 49.6864 63.9015 49.4539 63.7572C49.2239 63.6128 48.9523 63.5406 48.6391 63.5406C48.2941 63.5406 47.9955 63.6263 47.7435 63.7975C47.4939 63.9664 47.3018 64.1866 47.1673 64.4582C47.0327 64.7298 46.9654 65.021 46.9654 65.3318V65.8309C46.9654 66.2567 47.0388 66.6176 47.1856 66.9137C47.3349 67.2073 47.5416 67.4312 47.8059 67.5854C48.0702 67.7371 48.3773 67.813 48.7272 67.813C48.9547 67.813 49.1603 67.7812 49.3438 67.7175C49.5298 67.6515 49.69 67.5536 49.8246 67.4239C49.9592 67.2918 50.0632 67.1278 50.1366 66.9321L50.9735 67.167C50.8854 67.4508 50.7373 67.7004 50.5293 67.9157C50.3214 68.1286 50.0644 68.295 49.7586 68.4149C49.4527 68.5324 49.1089 68.5911 48.7272 68.5911ZM54.831 62.8359V63.57H51.9094V62.8359H54.831ZM52.7609 61.4852H53.6272V66.8587C53.6272 67.1034 53.6626 67.2869 53.7336 67.4092C53.807 67.5291 53.9 67.6099 54.0125 67.6515C54.1276 67.6906 54.2487 67.7102 54.3759 67.7102C54.4713 67.7102 54.5496 67.7053 54.6108 67.6955C54.672 67.6833 54.7209 67.6735 54.7576 67.6661L54.9338 68.4443C54.8751 68.4663 54.7931 68.4883 54.6879 68.5103C54.5827 68.5348 54.4493 68.547 54.2878 68.547C54.0431 68.547 53.8033 68.4944 53.5684 68.3892C53.336 68.284 53.1427 68.1237 52.9885 67.9084C52.8368 67.6931 52.7609 67.4215 52.7609 67.0936V61.4852ZM56.134 68.4736V62.8359H57.0003V68.4736H56.134ZM56.5745 61.8963C56.4056 61.8963 56.2601 61.8388 56.1377 61.7238C56.0178 61.6088 55.9579 61.4705 55.9579 61.309C55.9579 61.1475 56.0178 61.0093 56.1377 60.8943C56.2601 60.7793 56.4056 60.7218 56.5745 60.7218C56.7433 60.7218 56.8877 60.7793 57.0076 60.8943C57.1299 61.0093 57.1911 61.1475 57.1911 61.309C57.1911 61.4705 57.1299 61.6088 57.0076 61.7238C56.8877 61.8388 56.7433 61.8963 56.5745 61.8963ZM59.453 65.0822V68.4736H58.5868V62.8359H59.4236V63.7168H59.497C59.6292 63.4305 59.8298 63.2005 60.099 63.0268C60.3681 62.8506 60.7156 62.7625 61.1414 62.7625C61.5231 62.7625 61.8571 62.8408 62.1434 62.9974C62.4297 63.1516 62.6524 63.3865 62.8114 63.7021C62.9705 64.0153 63.05 64.4117 63.05 64.8913V68.4736H62.1838V64.9501C62.1838 64.5072 62.0688 64.1621 61.8387 63.915C61.6087 63.6654 61.2931 63.5406 60.8918 63.5406C60.6153 63.5406 60.3681 63.6006 60.1504 63.7205C59.935 63.8404 59.765 64.0153 59.6402 64.2453C59.5154 64.4753 59.453 64.7543 59.453 65.0822ZM66.9085 70.7052C66.4901 70.7052 66.1304 70.6514 65.8294 70.5437C65.5284 70.4385 65.2776 70.299 65.077 70.1253C64.8788 69.954 64.7209 69.7705 64.6035 69.5748L65.2935 69.0903C65.3718 69.193 65.4709 69.3105 65.5908 69.4426C65.7107 69.5772 65.8747 69.6934 66.0826 69.7913C66.2931 69.8916 66.5684 69.9418 66.9085 69.9418C67.3636 69.9418 67.7392 69.8317 68.0353 69.6115C68.3314 69.3912 68.4794 69.0462 68.4794 68.5764V67.4312H68.406C68.3424 67.534 68.2519 67.6613 68.1344 67.813C68.0194 67.9622 67.853 68.0956 67.6352 68.213C67.4199 68.328 67.1287 68.3855 66.7617 68.3855C66.3065 68.3855 65.8979 68.2779 65.5358 68.0625C65.1761 67.8472 64.891 67.534 64.6806 67.1229C64.4726 66.7118 64.3686 66.2127 64.3686 65.6254C64.3686 65.0479 64.4701 64.5451 64.6732 64.1169C64.8763 63.6862 65.1589 63.3534 65.5211 63.1185C65.8832 62.8812 66.3016 62.7625 66.7764 62.7625C67.1434 62.7625 67.4346 62.8237 67.6499 62.946C67.8677 63.0659 68.0341 63.2029 68.1491 63.3571C68.2665 63.5088 68.3571 63.6336 68.4207 63.7315H68.5088V62.8359H69.3456V68.6351C69.3456 69.1196 69.2355 69.5136 69.0153 69.817C68.7975 70.1229 68.5039 70.3468 68.1344 70.4887C67.7674 70.633 67.3587 70.7052 66.9085 70.7052ZM66.8791 67.6074C67.2266 67.6074 67.5202 67.5279 67.76 67.3688C67.9998 67.2098 68.1821 66.981 68.3069 66.6825C68.4317 66.384 68.4941 66.0267 68.4941 65.6107C68.4941 65.2045 68.4329 64.8461 68.3106 64.5353C68.1882 64.2245 68.0072 63.9811 67.7674 63.8049C67.5276 63.6287 67.2315 63.5406 66.8791 63.5406C66.5121 63.5406 66.2062 63.6336 65.9615 63.8196C65.7193 64.0055 65.537 64.2551 65.4146 64.5683C65.2947 64.8815 65.2348 65.229 65.2348 65.6107C65.2348 66.0022 65.296 66.3485 65.4183 66.6494C65.5431 66.948 65.7266 67.1829 65.9689 67.3542C66.2136 67.523 66.517 67.6074 66.8791 67.6074ZM80.0045 63.3057H79.0942C79.0404 63.0439 78.9462 62.8139 78.8116 62.6157C78.6795 62.4175 78.518 62.2511 78.3271 62.1165C78.1387 61.9795 77.9295 61.8767 77.6995 61.8082C77.4694 61.7397 77.2296 61.7054 76.9801 61.7054C76.5249 61.7054 76.1126 61.8204 75.7431 62.0504C75.3761 62.2804 75.0837 62.6193 74.8659 63.0671C74.6506 63.5149 74.5429 64.0643 74.5429 64.7151C74.5429 65.366 74.6506 65.9154 74.8659 66.3632C75.0837 66.8109 75.3761 67.1498 75.7431 67.3799C76.1126 67.6099 76.5249 67.7249 76.9801 67.7249C77.2296 67.7249 77.4694 67.6906 77.6995 67.6221C77.9295 67.5536 78.1387 67.452 78.3271 67.3175C78.518 67.1804 78.6795 67.0128 78.8116 66.8146C78.9462 66.614 79.0404 66.384 79.0942 66.1246H80.0045C79.9359 66.5087 79.8112 66.8525 79.6301 67.156C79.449 67.4594 79.2239 67.7175 78.9547 67.9304C78.6856 68.1409 78.3834 68.3011 78.0481 68.4112C77.7154 68.5213 77.3593 68.5764 76.9801 68.5764C76.339 68.5764 75.7688 68.4198 75.2697 68.1066C74.7705 67.7934 74.3777 67.348 74.0915 66.7706C73.8052 66.1931 73.662 65.508 73.662 64.7151C73.662 63.9223 73.8052 63.2372 74.0915 62.6597C74.3777 62.0822 74.7705 61.6369 75.2697 61.3237C75.7688 61.0105 76.339 60.8539 76.9801 60.8539C77.3593 60.8539 77.7154 60.9089 78.0481 61.0191C78.3834 61.1292 78.6856 61.2907 78.9547 61.5035C79.2239 61.714 79.449 61.9709 79.6301 62.2743C79.8112 62.5753 79.9359 62.9191 80.0045 63.3057ZM83.0169 68.6058C82.6597 68.6058 82.3355 68.5385 82.0443 68.4039C81.7531 68.2669 81.5219 68.0699 81.3506 67.813C81.1793 67.5536 81.0937 67.2404 81.0937 66.8733C81.0937 66.5503 81.1573 66.2885 81.2845 66.0879C81.4118 65.8848 81.5818 65.7257 81.7947 65.6107C82.0076 65.4957 82.2425 65.4101 82.4994 65.3538C82.7588 65.2951 83.0194 65.2486 83.2812 65.2143C83.6238 65.1703 83.9015 65.1372 84.1144 65.1152C84.3297 65.0908 84.4863 65.0504 84.5842 64.9941C84.6845 64.9378 84.7347 64.8399 84.7347 64.7005V64.6711C84.7347 64.309 84.6356 64.0276 84.4374 63.8269C84.2416 63.6263 83.9443 63.5259 83.5455 63.5259C83.1319 63.5259 82.8077 63.6165 82.5728 63.7975C82.3379 63.9786 82.1728 64.1719 82.0773 64.3775L81.2552 64.0838C81.402 63.7413 81.5977 63.4746 81.8424 63.2837C82.0896 63.0904 82.3587 62.9558 82.6499 62.8799C82.9435 62.8016 83.2323 62.7625 83.5161 62.7625C83.6972 62.7625 83.9052 62.7845 84.1401 62.8286C84.3774 62.8702 84.6062 62.957 84.8264 63.0892C85.0491 63.2213 85.2339 63.4207 85.3807 63.6874C85.5275 63.9542 85.6009 64.3114 85.6009 64.7592V68.4736H84.7347V67.7102H84.6906C84.6319 67.8325 84.534 67.9634 84.397 68.1029C84.26 68.2424 84.0777 68.3611 83.8501 68.459C83.6226 68.5568 83.3448 68.6058 83.0169 68.6058ZM83.1491 67.8276C83.4916 67.8276 83.7804 67.7604 84.0153 67.6258C84.2526 67.4912 84.4313 67.3175 84.5512 67.1046C84.6735 66.8917 84.7347 66.6678 84.7347 66.4329V65.6401C84.698 65.6841 84.6172 65.7245 84.4924 65.7612C84.3701 65.7955 84.2282 65.8261 84.0667 65.853C83.9076 65.8774 83.7522 65.8995 83.6005 65.919C83.4513 65.9362 83.3301 65.9508 83.2372 65.9631C83.012 65.9924 82.8016 66.0402 82.6059 66.1062C82.4125 66.1698 82.2559 66.2665 82.136 66.3962C82.0186 66.5234 81.9599 66.6972 81.9599 66.9174C81.9599 67.2184 82.0712 67.4459 82.2939 67.6001C82.519 67.7518 82.8041 67.8276 83.1491 67.8276ZM87.1819 68.4736V62.8359H88.0188V63.7168H88.0922C88.2096 63.4158 88.3993 63.1821 88.6611 63.0158C88.9229 62.8469 89.2373 62.7625 89.6044 62.7625C89.9763 62.7625 90.2859 62.8469 90.533 63.0158C90.7826 63.1821 90.9771 63.4158 91.1166 63.7168H91.1753C91.3197 63.4256 91.5362 63.1944 91.825 63.0231C92.1137 62.8494 92.46 62.7625 92.8637 62.7625C93.3678 62.7625 93.7801 62.9203 94.1006 63.236C94.4212 63.5492 94.5814 64.0373 94.5814 64.7005V68.4736H93.7152V64.7005C93.7152 64.2845 93.6014 63.9872 93.3739 63.8086C93.1463 63.6299 92.8784 63.5406 92.5701 63.5406C92.1737 63.5406 91.8666 63.6605 91.6488 63.9003C91.431 64.1377 91.3221 64.4386 91.3221 64.8032V68.4736H90.4412V64.6124C90.4412 64.2918 90.3372 64.0337 90.1292 63.8379C89.9213 63.6397 89.6533 63.5406 89.3254 63.5406C89.1003 63.5406 88.8899 63.6006 88.6941 63.7205C88.5008 63.8404 88.3442 64.0068 88.2243 64.2196C88.1069 64.4301 88.0481 64.6735 88.0481 64.9501V68.4736H87.1819ZM96.1652 70.5878V62.8359H97.0021V63.7315H97.1048C97.1685 63.6336 97.2566 63.5088 97.3691 63.3571C97.4841 63.2029 97.6481 63.0659 97.8609 62.946C98.0763 62.8237 98.3675 62.7625 98.7345 62.7625C99.2092 62.7625 99.6276 62.8812 99.9898 63.1185C100.352 63.3559 100.635 63.6923 100.838 64.1279C101.041 64.5634 101.142 65.0773 101.142 65.6694C101.142 66.2665 101.041 66.784 100.838 67.222C100.635 67.6576 100.353 67.9953 99.9934 68.2351C99.6337 68.4724 99.219 68.5911 98.7492 68.5911C98.387 68.5911 98.0971 68.5311 97.8793 68.4112C97.6615 68.2889 97.4939 68.1506 97.3765 67.9965C97.259 67.8399 97.1685 67.7102 97.1048 67.6074H97.0314V70.5878H96.1652ZM97.0168 65.6548C97.0168 66.0805 97.0791 66.4561 97.2039 66.7816C97.3287 67.1046 97.511 67.3578 97.7508 67.5414C97.9906 67.7224 98.2843 67.813 98.6317 67.813C98.9939 67.813 99.2961 67.7175 99.5383 67.5267C99.783 67.3334 99.9665 67.074 100.089 66.7485C100.214 66.4207 100.276 66.0561 100.276 65.6548C100.276 65.2584 100.215 64.9011 100.093 64.583C99.9726 64.2625 99.7903 64.0092 99.5457 63.8232C99.3034 63.6348 98.9988 63.5406 98.6317 63.5406C98.2794 63.5406 97.9833 63.6299 97.7435 63.8086C97.5037 63.9847 97.3226 64.2319 97.2003 64.55C97.0779 64.8656 97.0168 65.2339 97.0168 65.6548ZM104.123 68.6058C103.765 68.6058 103.441 68.5385 103.15 68.4039C102.859 68.2669 102.628 68.0699 102.456 67.813C102.285 67.5536 102.199 67.2404 102.199 66.8733C102.199 66.5503 102.263 66.2885 102.39 66.0879C102.517 65.8848 102.688 65.7257 102.9 65.6107C103.113 65.4957 103.348 65.4101 103.605 65.3538C103.864 65.2951 104.125 65.2486 104.387 65.2143C104.729 65.1703 105.007 65.1372 105.22 65.1152C105.435 65.0908 105.592 65.0504 105.69 64.9941C105.79 64.9378 105.84 64.8399 105.84 64.7005V64.6711C105.84 64.309 105.741 64.0276 105.543 63.8269C105.347 63.6263 105.05 63.5259 104.651 63.5259C104.238 63.5259 103.913 63.6165 103.679 63.7975C103.444 63.9786 103.278 64.1719 103.183 64.3775L102.361 64.0838C102.508 63.7413 102.703 63.4746 102.948 63.2837C103.195 63.0904 103.464 62.9558 103.756 62.8799C104.049 62.8016 104.338 62.7625 104.622 62.7625C104.803 62.7625 105.011 62.7845 105.246 62.8286C105.483 62.8702 105.712 62.957 105.932 63.0892C106.155 63.2213 106.34 63.4207 106.486 63.6874C106.633 63.9542 106.707 64.3114 106.707 64.7592V68.4736H105.84V67.7102H105.796C105.738 67.8325 105.64 67.9634 105.503 68.1029C105.366 68.2424 105.183 68.3611 104.956 68.459C104.728 68.5568 104.451 68.6058 104.123 68.6058ZM104.255 67.8276C104.597 67.8276 104.886 67.7604 105.121 67.6258C105.358 67.4912 105.537 67.3175 105.657 67.1046C105.779 66.8917 105.84 66.6678 105.84 66.4329V65.6401C105.804 65.6841 105.723 65.7245 105.598 65.7612C105.476 65.7955 105.334 65.8261 105.172 65.853C105.013 65.8774 104.858 65.8995 104.706 65.919C104.557 65.9362 104.436 65.9508 104.343 65.9631C104.118 65.9924 103.907 66.0402 103.712 66.1062C103.518 66.1698 103.362 66.2665 103.242 66.3962C103.124 66.5234 103.066 66.6972 103.066 66.9174C103.066 67.2184 103.177 67.4459 103.4 67.6001C103.625 67.7518 103.91 67.8276 104.255 67.8276ZM108.288 68.4736V62.8359H109.154V68.4736H108.288ZM108.728 61.8963C108.559 61.8963 108.414 61.8388 108.291 61.7238C108.171 61.6088 108.111 61.4705 108.111 61.309C108.111 61.1475 108.171 61.0093 108.291 60.8943C108.414 60.7793 108.559 60.7218 108.728 60.7218C108.897 60.7218 109.041 60.7793 109.161 60.8943C109.284 61.0093 109.345 61.1475 109.345 61.309C109.345 61.4705 109.284 61.6088 109.161 61.7238C109.041 61.8388 108.897 61.8963 108.728 61.8963ZM113.016 70.7052C112.598 70.7052 112.238 70.6514 111.937 70.5437C111.636 70.4385 111.385 70.299 111.184 70.1253C110.986 69.954 110.828 69.7705 110.711 69.5748L111.401 69.0903C111.479 69.193 111.578 69.3105 111.698 69.4426C111.818 69.5772 111.982 69.6934 112.19 69.7913C112.401 69.8916 112.676 69.9418 113.016 69.9418C113.471 69.9418 113.847 69.8317 114.143 69.6115C114.439 69.3912 114.587 69.0462 114.587 68.5764V67.4312H114.514C114.45 67.534 114.359 67.6613 114.242 67.813C114.127 67.9622 113.961 68.0956 113.743 68.213C113.527 68.328 113.236 68.3855 112.869 68.3855C112.414 68.3855 112.005 68.2779 111.643 68.0625C111.284 67.8472 110.999 67.534 110.788 67.1229C110.58 66.7118 110.476 66.2127 110.476 65.6254C110.476 65.0479 110.578 64.5451 110.781 64.1169C110.984 63.6862 111.266 63.3534 111.629 63.1185C111.991 62.8812 112.409 62.7625 112.884 62.7625C113.251 62.7625 113.542 62.8237 113.757 62.946C113.975 63.0659 114.142 63.2029 114.257 63.3571C114.374 63.5088 114.465 63.6336 114.528 63.7315H114.616V62.8359H115.453V68.6351C115.453 69.1196 115.343 69.5136 115.123 69.817C114.905 70.1229 114.611 70.3468 114.242 70.4887C113.875 70.633 113.466 70.7052 113.016 70.7052ZM112.987 67.6074C113.334 67.6074 113.628 67.5279 113.868 67.3688C114.107 67.2098 114.29 66.981 114.414 66.6825C114.539 66.384 114.602 66.0267 114.602 65.6107C114.602 65.2045 114.54 64.8461 114.418 64.5353C114.296 64.2245 114.115 63.9811 113.875 63.8049C113.635 63.6287 113.339 63.5406 112.987 63.5406C112.62 63.5406 112.314 63.6336 112.069 63.8196C111.827 64.0055 111.645 64.2551 111.522 64.5683C111.402 64.8815 111.342 65.229 111.342 65.6107C111.342 66.0022 111.403 66.3485 111.526 66.6494C111.651 66.948 111.834 67.1829 112.076 67.3542C112.321 67.523 112.625 67.6074 112.987 67.6074ZM117.905 65.0822V68.4736H117.039V62.8359H117.876V63.7168H117.949C118.081 63.4305 118.282 63.2005 118.551 63.0268C118.82 62.8506 119.168 62.7625 119.593 62.7625C119.975 62.7625 120.309 62.8408 120.595 62.9974C120.882 63.1516 121.104 63.3865 121.263 63.7021C121.422 64.0153 121.502 64.4117 121.502 64.8913V68.4736H120.636V64.9501C120.636 64.5072 120.521 64.1621 120.291 63.915C120.061 63.6654 119.745 63.5406 119.344 63.5406C119.067 63.5406 118.82 63.6006 118.602 63.7205C118.387 63.8404 118.217 64.0153 118.092 64.2453C117.967 64.4753 117.905 64.7543 117.905 65.0822ZM128.84 66.1246H129.838L130.675 67.2257L130.895 67.5193L132.143 69.1783H131.145L130.323 68.0772L130.117 67.7983L128.84 66.1246ZM132.452 64.7151C132.452 65.508 132.309 66.1931 132.022 66.7706C131.736 67.348 131.343 67.7934 130.844 68.1066C130.345 68.4198 129.775 68.5764 129.134 68.5764C128.493 68.5764 127.922 68.4198 127.423 68.1066C126.924 67.7934 126.531 67.348 126.245 66.7706C125.959 66.1931 125.816 65.508 125.816 64.7151C125.816 63.9223 125.959 63.2372 126.245 62.6597C126.531 62.0822 126.924 61.6369 127.423 61.3237C127.922 61.0105 128.493 60.8539 129.134 60.8539C129.775 60.8539 130.345 61.0105 130.844 61.3237C131.343 61.6369 131.736 62.0822 132.022 62.6597C132.309 63.2372 132.452 63.9223 132.452 64.7151ZM131.571 64.7151C131.571 64.0643 131.462 63.5149 131.244 63.0671C131.029 62.6193 130.736 62.2804 130.367 62.0504C130 61.8204 129.589 61.7054 129.134 61.7054C128.679 61.7054 128.266 61.8204 127.897 62.0504C127.53 62.2804 127.237 62.6193 127.019 63.0671C126.804 63.5149 126.696 64.0643 126.696 64.7151C126.696 65.366 126.804 65.9154 127.019 66.3632C127.237 66.8109 127.53 67.1498 127.897 67.3799C128.266 67.6099 128.679 67.7249 129.134 67.7249C129.589 67.7249 130 67.6099 130.367 67.3799C130.736 67.1498 131.029 66.8109 131.244 66.3632C131.462 65.9154 131.571 65.366 131.571 64.7151ZM136.493 60.9567V68.4736H135.583V61.911H135.538L133.703 63.1295V62.2046L135.583 60.9567H136.493Z" fill="#F2F2F2"/>
<path d="M140.941 57.2422V69.6041H140.207V57.2422H140.941Z" fill="#2489DB"/>
<path d="M15.5375 47.5234L13.7548 41.004H14.557L15.9195 46.3138H15.9832L17.3711 41.004H18.2624L19.6503 46.3138H19.714L21.0765 41.004H21.8786L20.096 47.5234H19.2811L17.8422 42.3283H17.7913L16.3524 47.5234H15.5375ZM24.2916 47.6253C23.8502 47.6253 23.4629 47.5203 23.1297 47.3102C22.7986 47.1001 22.5397 46.8061 22.353 46.4284C22.1683 46.0506 22.076 45.6092 22.076 45.1041C22.076 44.5948 22.1683 44.1502 22.353 43.7703C22.5397 43.3904 22.7986 43.0955 23.1297 42.8854C23.4629 42.6753 23.8502 42.5702 24.2916 42.5702C24.733 42.5702 25.1193 42.6753 25.4503 42.8854C25.7835 43.0955 26.0424 43.3904 26.2271 43.7703C26.4138 44.1502 26.5072 44.5948 26.5072 45.1041C26.5072 45.6092 26.4138 46.0506 26.2271 46.4284C26.0424 46.8061 25.7835 47.1001 25.4503 47.3102C25.1193 47.5203 24.733 47.6253 24.2916 47.6253ZM24.2916 46.9504C24.6269 46.9504 24.9028 46.8645 25.1193 46.6926C25.3357 46.5207 25.496 46.2947 25.5999 46.0145C25.7039 45.7344 25.7559 45.4309 25.7559 45.1041C25.7559 44.7773 25.7039 44.4728 25.5999 44.1905C25.496 43.9083 25.3357 43.6801 25.1193 43.5061C24.9028 43.3321 24.6269 43.2451 24.2916 43.2451C23.9563 43.2451 23.6804 43.3321 23.4639 43.5061C23.2475 43.6801 23.0872 43.9083 22.9833 44.1905C22.8793 44.4728 22.8273 44.7773 22.8273 45.1041C22.8273 45.4309 22.8793 45.7344 22.9833 46.0145C23.0872 46.2947 23.2475 46.5207 23.4639 46.6926C23.6804 46.8645 23.9563 46.9504 24.2916 46.9504ZM27.654 47.5234V42.6339H28.3798V43.3724H28.4307C28.5198 43.1305 28.6811 42.9342 28.9146 42.7835C29.148 42.6328 29.4112 42.5575 29.704 42.5575C29.7592 42.5575 29.8282 42.5585 29.9109 42.5607C29.9937 42.5628 30.0563 42.566 30.0988 42.5702V43.3342C30.0733 43.3278 30.0149 43.3183 29.9237 43.3056C29.8345 43.2907 29.7401 43.2833 29.6404 43.2833C29.4027 43.2833 29.1904 43.3331 29.0037 43.4329C28.8191 43.5305 28.6726 43.6663 28.5644 43.8403C28.4583 44.0122 28.4052 44.2086 28.4052 44.4293V47.5234H27.654ZM31.6896 45.7408L31.6769 44.8113H31.8297L33.9689 42.6339H34.8984L32.6191 44.9386H32.5555L31.6896 45.7408ZM30.9893 47.5234V41.004H31.7405V47.5234H30.9893ZM34.0962 47.5234L32.1862 45.1041L32.721 44.5821L35.0512 47.5234H34.0962ZM39.3288 43.7289L38.6539 43.9199C38.6115 43.8075 38.5488 43.6982 38.4661 43.592C38.3854 43.4838 38.2751 43.3947 38.135 43.3247C37.995 43.2546 37.8156 43.2196 37.597 43.2196C37.2978 43.2196 37.0484 43.2886 36.849 43.4265C36.6516 43.5623 36.5529 43.7353 36.5529 43.9454C36.5529 44.1322 36.6208 44.2796 36.7566 44.3879C36.8925 44.4961 37.1047 44.5863 37.3933 44.6585L38.1191 44.8367C38.5563 44.9428 38.882 45.1052 39.0964 45.3238C39.3107 45.5402 39.4179 45.8193 39.4179 46.161C39.4179 46.4411 39.3372 46.6915 39.176 46.9122C39.0168 47.133 38.794 47.307 38.5075 47.4343C38.221 47.5616 37.8878 47.6253 37.5079 47.6253C37.0092 47.6253 36.5964 47.5171 36.2696 47.3006C35.9428 47.0841 35.7359 46.7679 35.6489 46.352L36.3619 46.1737C36.4298 46.4369 36.5582 46.6342 36.7471 46.7658C36.9381 46.8974 37.1875 46.9632 37.4952 46.9632C37.8453 46.9632 38.1233 46.8889 38.3292 46.7403C38.5372 46.5897 38.6412 46.4093 38.6412 46.1992C38.6412 46.0294 38.5817 45.8872 38.4629 45.7726C38.3441 45.6559 38.1615 45.5689 37.9154 45.5116L37.1004 45.3206C36.6527 45.2145 36.3237 45.05 36.1136 44.8272C35.9056 44.6022 35.8017 44.321 35.8017 43.9836C35.8017 43.7077 35.8791 43.4637 36.034 43.2514C36.1911 43.0392 36.4044 42.8726 36.6739 42.7517C36.9455 42.6307 37.2532 42.5702 37.597 42.5702C38.0809 42.5702 38.4608 42.6763 38.7367 42.8885C39.0147 43.1008 39.212 43.3809 39.3288 43.7289ZM40.5488 49.357V42.6339H41.2746V43.4106H41.3637C41.4189 43.3257 41.4953 43.2175 41.5929 43.0859C41.6926 42.9522 41.8348 42.8334 42.0195 42.7294C42.2062 42.6233 42.4588 42.5702 42.7771 42.5702C43.1888 42.5702 43.5517 42.6731 43.8658 42.879C44.1799 43.0848 44.425 43.3766 44.6011 43.7544C44.7773 44.1322 44.8653 44.5778 44.8653 45.0914C44.8653 45.6092 44.7773 46.0581 44.6011 46.4379C44.425 46.8157 44.1809 47.1085 43.869 47.3165C43.557 47.5224 43.1973 47.6253 42.7898 47.6253C42.4757 47.6253 42.2242 47.5733 42.0354 47.4693C41.8465 47.3632 41.7011 47.2433 41.5993 47.1096C41.4974 46.9738 41.4189 46.8613 41.3637 46.7722H41.3V49.357H40.5488ZM41.2873 45.0787C41.2873 45.4479 41.3414 45.7737 41.4496 46.0559C41.5579 46.3361 41.716 46.5557 41.924 46.7149C42.1319 46.8719 42.3866 46.9504 42.6879 46.9504C43.002 46.9504 43.2641 46.8677 43.4742 46.7021C43.6864 46.5345 43.8456 46.3095 43.9517 46.0273C44.06 45.7429 44.1141 45.4267 44.1141 45.0787C44.1141 44.7349 44.061 44.425 43.9549 44.1491C43.8509 43.8711 43.6928 43.6515 43.4806 43.4902C43.2705 43.3268 43.0063 43.2451 42.6879 43.2451C42.3824 43.2451 42.1256 43.3225 41.9176 43.4775C41.7096 43.6302 41.5526 43.8446 41.4465 44.1205C41.3403 44.3942 41.2873 44.7136 41.2873 45.0787ZM47.4502 47.638C47.1403 47.638 46.8591 47.5797 46.6066 47.463C46.3541 47.3441 46.1535 47.1733 46.005 46.9504C45.8564 46.7255 45.7821 46.4538 45.7821 46.1355C45.7821 45.8554 45.8373 45.6283 45.9477 45.4543C46.058 45.2781 46.2055 45.1402 46.3901 45.0405C46.5748 44.9407 46.7785 44.8664 47.0013 44.8176C47.2263 44.7667 47.4523 44.7264 47.6794 44.6967C47.9765 44.6585 48.2174 44.6298 48.402 44.6107C48.5887 44.5895 48.7246 44.5545 48.8095 44.5057C48.8965 44.4568 48.94 44.372 48.94 44.251V44.2255C48.94 43.9114 48.854 43.6674 48.6821 43.4934C48.5123 43.3193 48.2545 43.2323 47.9086 43.2323C47.5499 43.2323 47.2687 43.3109 47.065 43.4679C46.8613 43.6249 46.718 43.7926 46.6353 43.9709L45.9222 43.7162C46.0495 43.4191 46.2193 43.1878 46.4315 43.0222C46.6459 42.8546 46.8793 42.7379 47.1319 42.6721C47.3865 42.6042 47.6369 42.5702 47.8831 42.5702C48.0402 42.5702 48.2205 42.5893 48.4243 42.6275C48.6301 42.6636 48.8286 42.7389 49.0196 42.8535C49.2127 42.9681 49.3729 43.1411 49.5002 43.3724C49.6276 43.6037 49.6912 43.9136 49.6912 44.3019V47.5234H48.94V46.8613H48.9018C48.8508 46.9674 48.766 47.081 48.6471 47.2019C48.5283 47.3229 48.3702 47.4258 48.1728 47.5107C47.9754 47.5956 47.7346 47.638 47.4502 47.638ZM47.5648 46.9632C47.8619 46.9632 48.1123 46.9048 48.316 46.7881C48.5219 46.6714 48.6768 46.5207 48.7808 46.3361C48.8869 46.1514 48.94 45.9572 48.94 45.7535V45.0659C48.9081 45.1041 48.8381 45.1391 48.7299 45.171C48.6238 45.2007 48.5007 45.2272 48.3606 45.2506C48.2227 45.2718 48.0879 45.2909 47.9563 45.3079C47.8269 45.3227 47.7218 45.3354 47.6412 45.3461C47.4459 45.3715 47.2634 45.4129 47.0937 45.4702C46.926 45.5254 46.7902 45.6092 46.6862 45.7217C46.5843 45.832 46.5334 45.9827 46.5334 46.1737C46.5334 46.4347 46.6299 46.6321 46.8231 46.7658C47.0183 46.8974 47.2655 46.9632 47.5648 46.9632ZM53.0488 47.6253C52.5904 47.6253 52.1957 47.5171 51.8646 47.3006C51.5336 47.0841 51.2789 46.786 51.1006 46.4061C50.9224 46.0262 50.8332 45.5922 50.8332 45.1041C50.8332 44.6075 50.9245 44.1693 51.107 43.7894C51.2916 43.4074 51.5484 43.1092 51.8774 42.8949C52.2084 42.6784 52.5947 42.5702 53.0361 42.5702C53.3799 42.5702 53.6897 42.6339 53.9656 42.7612C54.2415 42.8885 54.4675 43.0668 54.6437 43.296C54.8198 43.5252 54.9291 43.7926 54.9715 44.0982H54.2203C54.163 43.8754 54.0357 43.678 53.8383 43.5061C53.643 43.3321 53.3799 43.2451 53.0488 43.2451C52.756 43.2451 52.4992 43.3215 52.2785 43.4743C52.0599 43.6249 51.889 43.8382 51.766 44.1141C51.645 44.3879 51.5845 44.7094 51.5845 45.0787C51.5845 45.4564 51.6439 45.7854 51.7628 46.0655C51.8837 46.3456 52.0535 46.5631 52.2721 46.7181C52.4928 46.873 52.7517 46.9504 53.0488 46.9504C53.2441 46.9504 53.4213 46.9165 53.5804 46.8486C53.7396 46.7807 53.8744 46.683 53.9847 46.5557C54.0951 46.4284 54.1736 46.2756 54.2203 46.0973H54.9715C54.9291 46.3859 54.8241 46.6459 54.6564 46.8772C54.4909 47.1064 54.2712 47.2889 53.9975 47.4248C53.7258 47.5585 53.4096 47.6253 53.0488 47.6253ZM58.1198 47.6253C57.6487 47.6253 57.2423 47.5213 56.9006 47.3133C56.5611 47.1032 56.299 46.8104 56.1144 46.4347C55.9318 46.057 55.8406 45.6177 55.8406 45.1169C55.8406 44.616 55.9318 44.1746 56.1144 43.7926C56.299 43.4085 56.5558 43.1092 56.8847 42.8949C57.2158 42.6784 57.602 42.5702 58.0434 42.5702C58.2981 42.5702 58.5496 42.6127 58.7979 42.6975C59.0462 42.7824 59.2722 42.9204 59.4759 43.1114C59.6797 43.3002 59.842 43.5507 59.963 43.8626C60.0839 44.1746 60.1444 44.5587 60.1444 45.015V45.3333H56.3754V44.6839H59.3804C59.3804 44.408 59.3253 44.1619 59.2149 43.9454C59.1067 43.7289 58.9517 43.5581 58.7501 43.4329C58.5506 43.3077 58.3151 43.2451 58.0434 43.2451C57.7442 43.2451 57.4853 43.3193 57.2667 43.4679C57.0502 43.6143 56.8837 43.8053 56.7669 44.0409C56.6502 44.2765 56.5919 44.529 56.5919 44.7985V45.2315C56.5919 45.6007 56.6555 45.9137 56.7829 46.1705C56.9123 46.4252 57.0916 46.6194 57.3208 46.7531C57.55 46.8847 57.8164 46.9504 58.1198 46.9504C58.3172 46.9504 58.4955 46.9229 58.6546 46.8677C58.8159 46.8104 58.9549 46.7255 59.0717 46.613C59.1884 46.4984 59.2786 46.3562 59.3422 46.1864L60.068 46.3902C59.9916 46.6364 59.8632 46.8528 59.6828 47.0396C59.5025 47.2242 59.2796 47.3685 59.0144 47.4725C58.7491 47.5744 58.4509 47.6253 58.1198 47.6253ZM69.08 41.004V47.5234H68.316L64.7634 42.4047H64.6997V47.5234H63.9103V41.004H64.6743L68.2396 46.1355H68.3033V41.004H69.08ZM71.9967 47.638C71.6868 47.638 71.4057 47.5797 71.1531 47.463C70.9006 47.3441 70.7 47.1733 70.5515 46.9504C70.4029 46.7255 70.3286 46.4538 70.3286 46.1355C70.3286 45.8554 70.3838 45.6283 70.4942 45.4543C70.6045 45.2781 70.752 45.1402 70.9366 45.0405C71.1213 44.9407 71.325 44.8664 71.5478 44.8176C71.7728 44.7667 71.9988 44.7264 72.2259 44.6967C72.523 44.6585 72.7639 44.6298 72.9485 44.6107C73.1353 44.5895 73.2711 44.5545 73.356 44.5057C73.443 44.4568 73.4865 44.372 73.4865 44.251V44.2255C73.4865 43.9114 73.4005 43.6674 73.2286 43.4934C73.0589 43.3193 72.801 43.2323 72.4551 43.2323C72.0964 43.2323 71.8152 43.3109 71.6115 43.4679C71.4078 43.6249 71.2645 43.7926 71.1818 43.9709L70.4687 43.7162C70.596 43.4191 70.7658 43.1878 70.978 43.0222C71.1924 42.8546 71.4258 42.7379 71.6784 42.6721C71.933 42.6042 72.1834 42.5702 72.4296 42.5702C72.5867 42.5702 72.767 42.5893 72.9708 42.6275C73.1766 42.6636 73.3751 42.7389 73.5661 42.8535C73.7592 42.9681 73.9194 43.1411 74.0467 43.3724C74.1741 43.6037 74.2377 43.9136 74.2377 44.3019V47.5234H73.4865V46.8613H73.4483C73.3973 46.9674 73.3125 47.081 73.1936 47.2019C73.0748 47.3229 72.9167 47.4258 72.7193 47.5107C72.5219 47.5956 72.2811 47.638 71.9967 47.638ZM72.1113 46.9632C72.4084 46.9632 72.6588 46.9048 72.8625 46.7881C73.0684 46.6714 73.2233 46.5207 73.3273 46.3361C73.4334 46.1514 73.4865 45.9572 73.4865 45.7535V45.0659C73.4546 45.1041 73.3846 45.1391 73.2764 45.171C73.1703 45.2007 73.0472 45.2272 72.9071 45.2506C72.7692 45.2718 72.6344 45.2909 72.5028 45.3079C72.3734 45.3227 72.2683 45.3354 72.1877 45.3461C71.9924 45.3715 71.8099 45.4129 71.6402 45.4702C71.4725 45.5254 71.3367 45.6092 71.2327 45.7217C71.1308 45.832 71.0799 45.9827 71.0799 46.1737C71.0799 46.4347 71.1765 46.6321 71.3696 46.7658C71.5648 46.8974 71.8121 46.9632 72.1113 46.9632ZM75.609 47.5234V42.6339H76.3347V43.3979H76.3984C76.5003 43.1368 76.6647 42.9342 76.8918 42.7899C77.1189 42.6434 77.3916 42.5702 77.7099 42.5702C78.0325 42.5702 78.301 42.6434 78.5153 42.7899C78.7318 42.9342 78.9005 43.1368 79.0215 43.3979H79.0724C79.1976 43.1453 79.3854 42.9448 79.6358 42.7962C79.8863 42.6455 80.1866 42.5702 80.5367 42.5702C80.9739 42.5702 81.3315 42.7071 81.6095 42.9809C81.8875 43.2525 82.0265 43.6759 82.0265 44.251V47.5234H81.2752V44.251C81.2752 43.8902 81.1766 43.6324 80.9792 43.4775C80.7818 43.3225 80.5494 43.2451 80.2821 43.2451C79.9383 43.2451 79.6719 43.3491 79.483 43.557C79.2942 43.7629 79.1997 44.0239 79.1997 44.3401V47.5234H78.4357V44.1746C78.4357 43.8966 78.3455 43.6727 78.1651 43.5029C77.9848 43.331 77.7524 43.2451 77.468 43.2451C77.2728 43.2451 77.0903 43.2971 76.9205 43.4011C76.7528 43.505 76.617 43.6493 76.513 43.834C76.4111 44.0165 76.3602 44.2277 76.3602 44.4675V47.5234H75.609ZM85.4502 47.6253C84.979 47.6253 84.5726 47.5213 84.2309 47.3133C83.8914 47.1032 83.6293 46.8104 83.4447 46.4347C83.2622 46.057 83.1709 45.6177 83.1709 45.1169C83.1709 44.616 83.2622 44.1746 83.4447 43.7926C83.6293 43.4085 83.8861 43.1092 84.215 42.8949C84.5461 42.6784 84.9323 42.5702 85.3738 42.5702C85.6284 42.5702 85.8799 42.6127 86.1282 42.6975C86.3765 42.7824 86.6025 42.9204 86.8062 43.1114C87.01 43.3002 87.1723 43.5507 87.2933 43.8626C87.4143 44.1746 87.4747 44.5587 87.4747 45.015V45.3333H83.7057V44.6839H86.7107C86.7107 44.408 86.6556 44.1619 86.5452 43.9454C86.437 43.7289 86.2821 43.5581 86.0805 43.4329C85.881 43.3077 85.6454 43.2451 85.3738 43.2451C85.0745 43.2451 84.8156 43.3193 84.597 43.4679C84.3806 43.6143 84.214 43.8053 84.0972 44.0409C83.9805 44.2765 83.9222 44.529 83.9222 44.7985V45.2315C83.9222 45.6007 83.9858 45.9137 84.1132 46.1705C84.2426 46.4252 84.4219 46.6194 84.6511 46.7531C84.8803 46.8847 85.1467 46.9504 85.4502 46.9504C85.6475 46.9504 85.8258 46.9229 85.985 46.8677C86.1462 46.8104 86.2852 46.7255 86.402 46.613C86.5187 46.4984 86.6089 46.3562 86.6725 46.1864L87.3983 46.3902C87.3219 46.6364 87.1935 46.8528 87.0132 47.0396C86.8328 47.2242 86.6099 47.3685 86.3447 47.4725C86.0794 47.5744 85.7812 47.6253 85.4502 47.6253Z" fill="#A6A6A6"/>
<path d="M522.311 13.4325L519.034 17.1658C518.976 17.2322 518.904 17.2678 518.82 17.2725C518.735 17.2773 518.659 17.2417 518.592 17.1658C518.526 17.0899 518.492 17.0059 518.492 16.9139C518.492 16.8218 518.526 16.7378 518.592 16.6619L521.869 12.9286L518.592 9.19535C518.534 9.12893 518.503 9.04732 518.498 8.95054C518.494 8.85376 518.526 8.76741 518.592 8.6915C518.659 8.61559 518.733 8.57764 518.813 8.57764C518.894 8.57764 518.968 8.61559 519.034 8.6915L522.311 12.4248L525.588 8.6915C525.646 8.62508 525.718 8.5895 525.803 8.58475C525.888 8.58001 525.964 8.61559 526.03 8.6915C526.097 8.76741 526.13 8.85138 526.13 8.94342C526.13 9.03546 526.097 9.11944 526.03 9.19535L522.753 12.9286L526.03 16.6619C526.088 16.7284 526.12 16.8102 526.124 16.9075C526.128 17.0038 526.097 17.0899 526.03 17.1658C525.964 17.2417 525.89 17.2796 525.809 17.2796C525.728 17.2796 525.655 17.2417 525.588 17.1658L522.311 13.4325Z" fill="#A6A6A6"/>
<circle cx="24.5457" cy="117.258" r="9.68985" fill="#EE8484"/>
<path d="M26.8085 113.665V119.303H26.0268L23.1611 115.169H23.1088V119.303H22.2582V113.665H23.0455L25.9139 117.806H25.9662V113.665H26.8085Z" fill="white"/>
<path d="M88.5123 119.299V115.097H89.2253V119.299H88.5123ZM86.7678 117.554V116.841H90.9698V117.554H86.7678ZM97.2226 120.534C96.8024 120.534 96.4278 120.462 96.0989 120.317C95.7721 120.173 95.5121 119.973 95.319 119.716C95.128 119.457 95.024 119.157 95.007 118.815H95.8092C95.8262 119.025 95.8983 119.207 96.0257 119.359C96.153 119.51 96.3196 119.627 96.5254 119.709C96.7313 119.792 96.9594 119.834 97.2099 119.834C97.49 119.834 97.7383 119.785 97.9547 119.687C98.1712 119.59 98.341 119.454 98.4641 119.28C98.5872 119.106 98.6487 118.904 98.6487 118.675C98.6487 118.435 98.5893 118.224 98.4704 118.041C98.3516 117.857 98.1776 117.712 97.9484 117.608C97.7192 117.505 97.4391 117.453 97.108 117.453H96.5859V116.752H97.108C97.3669 116.752 97.594 116.705 97.7892 116.612C97.9866 116.519 98.1404 116.387 98.2508 116.217C98.3633 116.048 98.4195 115.848 98.4195 115.619C98.4195 115.398 98.3707 115.206 98.2731 115.043C98.1755 114.879 98.0375 114.752 97.8592 114.661C97.6831 114.569 97.4751 114.524 97.2353 114.524C97.0104 114.524 96.7981 114.565 96.5987 114.648C96.4013 114.729 96.24 114.846 96.1148 115.001C95.9896 115.154 95.9217 115.339 95.9111 115.555H95.1471C95.1598 115.214 95.2627 114.914 95.4558 114.658C95.649 114.399 95.9015 114.197 96.2135 114.053C96.5276 113.908 96.8724 113.836 97.2481 113.836C97.6513 113.836 97.9972 113.918 98.2858 114.081C98.5744 114.243 98.7962 114.456 98.9511 114.721C99.106 114.987 99.1835 115.273 99.1835 115.581C99.1835 115.948 99.0869 116.261 98.8938 116.52C98.7028 116.779 98.4429 116.958 98.1139 117.058V117.109C98.5256 117.177 98.8471 117.352 99.0785 117.634C99.3098 117.914 99.4254 118.261 99.4254 118.675C99.4254 119.029 99.3289 119.348 99.1358 119.63C98.9448 119.91 98.6837 120.131 98.3527 120.292C98.0216 120.453 97.6449 120.534 97.2226 120.534ZM103.261 120.445V115.555H103.987V116.319H104.051C104.153 116.058 104.317 115.856 104.544 115.711C104.771 115.565 105.044 115.492 105.362 115.492C105.685 115.492 105.953 115.565 106.168 115.711C106.384 115.856 106.553 116.058 106.674 116.319H106.725C106.85 116.067 107.038 115.866 107.288 115.718C107.539 115.567 107.839 115.492 108.189 115.492C108.626 115.492 108.984 115.628 109.262 115.902C109.54 116.174 109.679 116.597 109.679 117.172V120.445H108.928V117.172C108.928 116.812 108.829 116.554 108.632 116.399C108.434 116.244 108.202 116.166 107.934 116.166C107.591 116.166 107.324 116.27 107.135 116.478C106.947 116.684 106.852 116.945 106.852 117.262V120.445H106.088V117.096C106.088 116.818 105.998 116.594 105.818 116.424C105.637 116.252 105.405 116.166 105.12 116.166C104.925 116.166 104.743 116.218 104.573 116.322C104.405 116.426 104.269 116.571 104.165 116.755C104.064 116.938 104.013 117.149 104.013 117.389V120.445H103.261ZM113.103 120.547C112.631 120.547 112.225 120.443 111.883 120.235C111.544 120.025 111.282 119.732 111.097 119.356C110.915 118.978 110.823 118.539 110.823 118.038C110.823 117.537 110.915 117.096 111.097 116.714C111.282 116.33 111.538 116.031 111.867 115.816C112.198 115.6 112.585 115.492 113.026 115.492C113.281 115.492 113.532 115.534 113.781 115.619C114.029 115.704 114.255 115.842 114.459 116.033C114.662 116.222 114.825 116.472 114.946 116.784C115.067 117.096 115.127 117.48 115.127 117.936V118.255H111.358V117.605H114.363C114.363 117.329 114.308 117.083 114.198 116.867C114.089 116.65 113.934 116.479 113.733 116.354C113.533 116.229 113.298 116.166 113.026 116.166C112.727 116.166 112.468 116.241 112.249 116.389C112.033 116.536 111.866 116.727 111.75 116.962C111.633 117.198 111.575 117.45 111.575 117.72V118.153C111.575 118.522 111.638 118.835 111.766 119.092C111.895 119.347 112.074 119.541 112.304 119.674C112.533 119.806 112.799 119.872 113.103 119.872C113.3 119.872 113.478 119.844 113.637 119.789C113.799 119.732 113.938 119.647 114.054 119.534C114.171 119.42 114.261 119.278 114.325 119.108L115.051 119.312C114.974 119.558 114.846 119.774 114.666 119.961C114.485 120.146 114.262 120.29 113.997 120.394C113.732 120.496 113.434 120.547 113.103 120.547ZM116.27 120.445V115.555H116.996V116.319H117.059C117.161 116.058 117.326 115.856 117.553 115.711C117.78 115.565 118.053 115.492 118.371 115.492C118.693 115.492 118.962 115.565 119.176 115.711C119.393 115.856 119.561 116.058 119.682 116.319H119.733C119.859 116.067 120.046 115.866 120.297 115.718C120.547 115.567 120.848 115.492 121.198 115.492C121.635 115.492 121.992 115.628 122.27 115.902C122.548 116.174 122.687 116.597 122.687 117.172V120.445H121.936V117.172C121.936 116.812 121.838 116.554 121.64 116.399C121.443 116.244 121.21 116.166 120.943 116.166C120.599 116.166 120.333 116.27 120.144 116.478C119.955 116.684 119.861 116.945 119.861 117.262V120.445H119.097V117.096C119.097 116.818 119.007 116.594 118.826 116.424C118.646 116.252 118.413 116.166 118.129 116.166C117.934 116.166 117.751 116.218 117.581 116.322C117.414 116.426 117.278 116.571 117.174 116.755C117.072 116.938 117.021 117.149 117.021 117.389V120.445H116.27ZM124.163 120.445V113.925H124.914V116.332H124.978C125.033 116.247 125.109 116.139 125.207 116.007C125.307 115.874 125.449 115.755 125.634 115.651C125.82 115.545 126.073 115.492 126.391 115.492C126.803 115.492 127.166 115.595 127.48 115.8C127.794 116.006 128.039 116.298 128.215 116.676C128.391 117.054 128.48 117.499 128.48 118.013C128.48 118.531 128.391 118.979 128.215 119.359C128.039 119.737 127.795 120.03 127.483 120.238C127.171 120.444 126.811 120.547 126.404 120.547C126.09 120.547 125.838 120.495 125.65 120.391C125.461 120.285 125.315 120.165 125.213 120.031C125.112 119.895 125.033 119.783 124.978 119.694H124.889V120.445H124.163ZM124.901 118C124.901 118.369 124.956 118.695 125.064 118.977C125.172 119.257 125.33 119.477 125.538 119.636C125.746 119.793 126.001 119.872 126.302 119.872C126.616 119.872 126.878 119.789 127.088 119.624C127.301 119.456 127.46 119.231 127.566 118.949C127.674 118.664 127.728 118.348 127.728 118C127.728 117.656 127.675 117.346 127.569 117.071C127.465 116.793 127.307 116.573 127.095 116.412C126.885 116.248 126.62 116.166 126.302 116.166C125.997 116.166 125.74 116.244 125.532 116.399C125.324 116.552 125.167 116.766 125.061 117.042C124.955 117.316 124.901 117.635 124.901 118ZM131.679 120.547C131.208 120.547 130.801 120.443 130.46 120.235C130.12 120.025 129.858 119.732 129.673 119.356C129.491 118.978 129.399 118.539 129.399 118.038C129.399 117.537 129.491 117.096 129.673 116.714C129.858 116.33 130.115 116.031 130.444 115.816C130.775 115.6 131.161 115.492 131.602 115.492C131.857 115.492 132.108 115.534 132.357 115.619C132.605 115.704 132.831 115.842 133.035 116.033C133.239 116.222 133.401 116.472 133.522 116.784C133.643 117.096 133.703 117.48 133.703 117.936V118.255H129.934V117.605H132.939C132.939 117.329 132.884 117.083 132.774 116.867C132.666 116.65 132.511 116.479 132.309 116.354C132.11 116.229 131.874 116.166 131.602 116.166C131.303 116.166 131.044 116.241 130.826 116.389C130.609 116.536 130.443 116.727 130.326 116.962C130.209 117.198 130.151 117.45 130.151 117.72V118.153C130.151 118.522 130.214 118.835 130.342 119.092C130.471 119.347 130.651 119.541 130.88 119.674C131.109 119.806 131.375 119.872 131.679 119.872C131.876 119.872 132.054 119.844 132.214 119.789C132.375 119.732 132.514 119.647 132.631 119.534C132.747 119.42 132.837 119.278 132.901 119.108L133.627 119.312C133.551 119.558 133.422 119.774 133.242 119.961C133.061 120.146 132.839 120.29 132.573 120.394C132.308 120.496 132.01 120.547 131.679 120.547ZM134.846 120.445V115.555H135.572V116.294H135.623C135.712 116.052 135.873 115.856 136.107 115.705C136.34 115.554 136.603 115.479 136.896 115.479C136.951 115.479 137.02 115.48 137.103 115.482C137.186 115.484 137.248 115.487 137.291 115.492V116.256C137.265 116.249 137.207 116.24 137.116 116.227C137.027 116.212 136.932 116.205 136.833 116.205C136.595 116.205 136.383 116.255 136.196 116.354C136.011 116.452 135.865 116.588 135.757 116.762C135.65 116.934 135.597 117.13 135.597 117.351V120.445H134.846ZM141.645 116.65L140.97 116.841C140.928 116.729 140.865 116.62 140.782 116.513C140.702 116.405 140.591 116.316 140.451 116.246C140.311 116.176 140.132 116.141 139.913 116.141C139.614 116.141 139.365 116.21 139.165 116.348C138.968 116.484 138.869 116.657 138.869 116.867C138.869 117.054 138.937 117.201 139.073 117.309C139.209 117.417 139.421 117.508 139.709 117.58L140.435 117.758C140.872 117.864 141.198 118.027 141.413 118.245C141.627 118.462 141.734 118.741 141.734 119.082C141.734 119.362 141.653 119.613 141.492 119.834C141.333 120.054 141.11 120.228 140.824 120.356C140.537 120.483 140.204 120.547 139.824 120.547C139.325 120.547 138.913 120.438 138.586 120.222C138.259 120.006 138.052 119.689 137.965 119.273L138.678 119.095C138.746 119.358 138.874 119.556 139.063 119.687C139.254 119.819 139.504 119.885 139.811 119.885C140.161 119.885 140.439 119.81 140.645 119.662C140.853 119.511 140.957 119.331 140.957 119.121C140.957 118.951 140.898 118.809 140.779 118.694C140.66 118.577 140.478 118.49 140.231 118.433L139.417 118.242C138.969 118.136 138.64 117.971 138.43 117.749C138.222 117.524 138.118 117.242 138.118 116.905C138.118 116.629 138.195 116.385 138.35 116.173C138.507 115.961 138.72 115.794 138.99 115.673C139.262 115.552 139.569 115.492 139.913 115.492C140.397 115.492 140.777 115.598 141.053 115.81C141.331 116.022 141.528 116.302 141.645 116.65Z" fill="#A6A6A6"/>
<path d="M17.7267 93.2535V99.7729H16.9373V93.2535H17.7267ZM19.959 96.8316V99.7729H19.2078V94.8834H19.9336V95.6474H19.9972C20.1118 95.3991 20.2859 95.1996 20.5193 95.0489C20.7528 94.8961 21.0541 94.8197 21.4234 94.8197C21.7544 94.8197 22.0441 94.8876 22.2924 95.0235C22.5407 95.1571 22.7338 95.3609 22.8718 95.6346C23.0097 95.9063 23.0787 96.2501 23.0787 96.666V99.7729H22.3274V96.717C22.3274 96.3329 22.2277 96.0336 22.0282 95.8193C21.8287 95.6028 21.5549 95.4946 21.2069 95.4946C20.9671 95.4946 20.7528 95.5466 20.5639 95.6506C20.3771 95.7546 20.2296 95.9063 20.1214 96.1058C20.0132 96.3053 19.959 96.5472 19.959 96.8316ZM28.2746 94.8834L26.4665 99.7729H25.7025L23.8944 94.8834H24.7093L26.0591 98.7798H26.11L27.4597 94.8834H28.2746ZM29.2662 99.7729V94.8834H30.0175V99.7729H29.2662ZM29.6482 94.0685C29.5018 94.0685 29.3755 94.0186 29.2694 93.9188C29.1654 93.8191 29.1135 93.6992 29.1135 93.5591C29.1135 93.4191 29.1654 93.2992 29.2694 93.1994C29.3755 93.0997 29.5018 93.0498 29.6482 93.0498C29.7947 93.0498 29.9199 93.0997 30.0239 93.1994C30.13 93.2992 30.183 93.4191 30.183 93.5591C30.183 93.6992 30.13 93.8191 30.0239 93.9188C29.9199 94.0186 29.7947 94.0685 29.6482 94.0685ZM33.5199 94.8834V95.52H30.986V94.8834H33.5199ZM31.7246 93.7119H32.4758V98.3723C32.4758 98.5845 32.5066 98.7437 32.5681 98.8498C32.6318 98.9538 32.7124 99.0238 32.8101 99.0599C32.9098 99.0938 33.0149 99.1108 33.1252 99.1108C33.208 99.1108 33.2759 99.1066 33.3289 99.0981C33.382 99.0875 33.4244 99.079 33.4563 99.0726L33.6091 99.7475C33.5581 99.7666 33.4871 99.7857 33.3958 99.8048C33.3045 99.826 33.1889 99.8366 33.0488 99.8366C32.8366 99.8366 32.6286 99.791 32.4249 99.6997C32.2233 99.6085 32.0556 99.4695 31.9219 99.2827C31.7903 99.096 31.7246 98.8604 31.7246 98.576V93.7119ZM36.6475 99.8748C36.1764 99.8748 35.77 99.7708 35.4283 99.5629C35.0888 99.3528 34.8267 99.0599 34.6421 98.6843C34.4596 98.3065 34.3683 97.8672 34.3683 97.3664C34.3683 96.8655 34.4596 96.4241 34.6421 96.0421C34.8267 95.658 35.0835 95.3588 35.4124 95.1444C35.7435 94.928 36.1297 94.8197 36.5712 94.8197C36.8258 94.8197 37.0773 94.8622 37.3256 94.9471C37.5739 95.0319 37.7999 95.1699 38.0036 95.3609C38.2074 95.5498 38.3697 95.8002 38.4907 96.1121C38.6117 96.4241 38.6721 96.8082 38.6721 97.2645V97.5828H34.9031V96.9334H37.9081C37.9081 96.6575 37.853 96.4114 37.7426 96.1949C37.6344 95.9784 37.4795 95.8076 37.2778 95.6824C37.0784 95.5572 36.8428 95.4946 36.5712 95.4946C36.2719 95.4946 36.013 95.5689 35.7944 95.7174C35.578 95.8638 35.4114 96.0548 35.2946 96.2904C35.1779 96.526 35.1196 96.7785 35.1196 97.048V97.481C35.1196 97.8502 35.1832 98.1633 35.3106 98.42C35.44 98.6747 35.6193 98.8689 35.8485 99.0026C36.0777 99.1342 36.3441 99.2 36.6475 99.2C36.8449 99.2 37.0232 99.1724 37.1823 99.1172C37.3436 99.0599 37.4826 98.975 37.5994 98.8625C37.7161 98.7479 37.8063 98.6057 37.8699 98.436L38.5957 98.6397C38.5193 98.8859 38.3909 99.1023 38.2106 99.2891C38.0302 99.4737 37.8073 99.618 37.5421 99.722C37.2768 99.8239 36.9786 99.8748 36.6475 99.8748ZM42.0815 93.9539V93.2535H46.971V93.9539H44.921V99.7729H44.1315V93.9539H42.0815ZM49.4285 99.8748C48.9574 99.8748 48.551 99.7708 48.2093 99.5629C47.8698 99.3528 47.6077 99.0599 47.4231 98.6843C47.2405 98.3065 47.1493 97.8672 47.1493 97.3664C47.1493 96.8655 47.2405 96.4241 47.4231 96.0421C47.6077 95.658 47.8645 95.3588 48.1934 95.1444C48.5245 94.928 48.9107 94.8197 49.3521 94.8197C49.6068 94.8197 49.8583 94.8622 50.1066 94.9471C50.3549 95.0319 50.5809 95.1699 50.7846 95.3609C50.9884 95.5498 51.1507 95.8002 51.2717 96.1121C51.3926 96.4241 51.4531 96.8082 51.4531 97.2645V97.5828H47.6841V96.9334H50.6891C50.6891 96.6575 50.634 96.4114 50.5236 96.1949C50.4154 95.9784 50.2604 95.8076 50.0588 95.6824C49.8594 95.5572 49.6238 95.4946 49.3521 95.4946C49.0529 95.4946 48.794 95.5689 48.5754 95.7174C48.3589 95.8638 48.1924 96.0548 48.0756 96.2904C47.9589 96.526 47.9006 96.7785 47.9006 97.048V97.481C47.9006 97.8502 47.9642 98.1633 48.0916 98.42C48.221 98.6747 48.4003 98.8689 48.6295 99.0026C48.8587 99.1342 49.1251 99.2 49.4285 99.2C49.6259 99.2 49.8042 99.1724 49.9633 99.1172C50.1246 99.0599 50.2636 98.975 50.3804 98.8625C50.4971 98.7479 50.5873 98.6057 50.6509 98.436L51.3767 98.6397C51.3003 98.8859 51.1719 99.1023 50.9915 99.2891C50.8112 99.4737 50.5883 99.618 50.3231 99.722C50.0578 99.8239 49.7596 99.8748 49.4285 99.8748ZM54.0348 99.8875C53.7249 99.8875 53.4438 99.8292 53.1912 99.7125C52.9387 99.5936 52.7381 99.4228 52.5896 99.2C52.441 98.975 52.3667 98.7034 52.3667 98.385C52.3667 98.1049 52.4219 97.8778 52.5323 97.7038C52.6426 97.5277 52.7901 97.3897 52.9747 97.29C53.1594 97.1902 53.3631 97.1159 53.5859 97.0671C53.8109 97.0162 54.0369 96.9759 54.264 96.9462C54.5611 96.908 54.802 96.8793 54.9866 96.8602C55.1734 96.839 55.3092 96.804 55.3941 96.7552C55.4811 96.7064 55.5246 96.6215 55.5246 96.5005V96.475C55.5246 96.161 55.4386 95.9169 55.2667 95.7429C55.097 95.5689 54.8391 95.4818 54.4932 95.4818C54.1345 95.4818 53.8533 95.5604 53.6496 95.7174C53.4459 95.8745 53.3026 96.0421 53.2199 96.2204L52.5068 95.9657C52.6341 95.6686 52.8039 95.4373 53.0161 95.2717C53.2305 95.1041 53.4639 94.9874 53.7165 94.9216C53.9711 94.8537 54.2215 94.8197 54.4677 94.8197C54.6248 94.8197 54.8052 94.8388 55.0089 94.877C55.2147 94.9131 55.4132 94.9884 55.6042 95.103C55.7973 95.2176 55.9575 95.3906 56.0848 95.6219C56.2122 95.8532 56.2758 96.1631 56.2758 96.5514V99.7729H55.5246V99.1108H55.4864C55.4354 99.2169 55.3506 99.3305 55.2317 99.4514C55.1129 99.5724 54.9548 99.6753 54.7574 99.7602C54.56 99.8451 54.3192 99.8875 54.0348 99.8875ZM54.1494 99.2127C54.4465 99.2127 54.6969 99.1543 54.9007 99.0376C55.1065 98.9209 55.2614 98.7702 55.3654 98.5856C55.4715 98.4009 55.5246 98.2068 55.5246 98.003V97.3154C55.4927 97.3536 55.4227 97.3886 55.3145 97.4205C55.2084 97.4502 55.0853 97.4767 54.9452 97.5001C54.8073 97.5213 54.6725 97.5404 54.5409 97.5574C54.4115 97.5722 54.3064 97.585 54.2258 97.5956C54.0305 97.621 53.848 97.6624 53.6783 97.7197C53.5106 97.7749 53.3748 97.8587 53.2708 97.9712C53.1689 98.0816 53.118 98.2322 53.118 98.4232C53.118 98.6843 53.2146 98.8816 53.4077 99.0153C53.6029 99.1469 53.8502 99.2127 54.1494 99.2127ZM57.6471 99.7729V94.8834H58.3728V95.6474H58.4365C58.5384 95.3863 58.7029 95.1837 58.9299 95.0394C59.157 94.8929 59.4297 94.8197 59.748 94.8197C60.0706 94.8197 60.3391 94.8929 60.5534 95.0394C60.7699 95.1837 60.9386 95.3863 61.0596 95.6474H61.1105C61.2357 95.3948 61.4235 95.1943 61.6739 95.0457C61.9244 94.8951 62.2247 94.8197 62.5748 94.8197C63.012 94.8197 63.3696 94.9566 63.6476 95.2304C63.9256 95.502 64.0646 95.9254 64.0646 96.5005V99.7729H63.3133V96.5005C63.3133 96.1397 63.2147 95.8819 63.0173 95.727C62.8199 95.572 62.5876 95.4946 62.3202 95.4946C61.9764 95.4946 61.71 95.5986 61.5211 95.8065C61.3323 96.0124 61.2378 96.2734 61.2378 96.5896V99.7729H60.4738V96.4241C60.4738 96.1461 60.3836 95.9222 60.2033 95.7524C60.0229 95.5805 59.7905 95.4946 59.5061 95.4946C59.3109 95.4946 59.1284 95.5466 58.9586 95.6506C58.7909 95.7546 58.6551 95.8989 58.5511 96.0835C58.4492 96.266 58.3983 96.4772 58.3983 96.717V99.7729H57.6471ZM68.0613 93.2535H69.0035L71.2191 98.6652H71.2955L73.5111 93.2535H74.4533V99.7729H73.7148V94.8197H73.6511L71.6138 99.7729H70.9008L68.8634 94.8197H68.7998V99.7729H68.0613V93.2535ZM77.9844 99.8748C77.5133 99.8748 77.1069 99.7708 76.7652 99.5629C76.4257 99.3528 76.1636 99.0599 75.9789 98.6843C75.7964 98.3065 75.7052 97.8672 75.7052 97.3664C75.7052 96.8655 75.7964 96.4241 75.9789 96.0421C76.1636 95.658 76.4204 95.3588 76.7493 95.1444C77.0804 94.928 77.4666 94.8197 77.908 94.8197C78.1627 94.8197 78.4142 94.8622 78.6625 94.9471C78.9108 95.0319 79.1368 95.1699 79.3405 95.3609C79.5442 95.5498 79.7066 95.8002 79.8276 96.1121C79.9485 96.4241 80.009 96.8082 80.009 97.2645V97.5828H76.24V96.9334H79.245C79.245 96.6575 79.1898 96.4114 79.0795 96.1949C78.9713 95.9784 78.8163 95.8076 78.6147 95.6824C78.4152 95.5572 78.1797 95.4946 77.908 95.4946C77.6088 95.4946 77.3499 95.5689 77.1313 95.7174C76.9148 95.8638 76.7482 96.0548 76.6315 96.2904C76.5148 96.526 76.4564 96.7785 76.4564 97.048V97.481C76.4564 97.8502 76.5201 98.1633 76.6474 98.42C76.7769 98.6747 76.9562 98.8689 77.1854 99.0026C77.4146 99.1342 77.681 99.2 77.9844 99.2C78.1818 99.2 78.3601 99.1724 78.5192 99.1172C78.6805 99.0599 78.8195 98.975 78.9362 98.8625C79.053 98.7479 79.1432 98.6057 79.2068 98.436L79.9326 98.6397C79.8562 98.8859 79.7278 99.1023 79.5474 99.2891C79.367 99.4737 79.1442 99.618 78.8789 99.722C78.6137 99.8239 78.3155 99.8748 77.9844 99.8748ZM81.1518 99.7729V94.8834H81.8776V95.6474H81.9413C82.0431 95.3863 82.2076 95.1837 82.4347 95.0394C82.6618 94.8929 82.9345 94.8197 83.2528 94.8197C83.5754 94.8197 83.8438 94.8929 84.0582 95.0394C84.2746 95.1837 84.4434 95.3863 84.5643 95.6474H84.6153C84.7405 95.3948 84.9283 95.1943 85.1787 95.0457C85.4291 94.8951 85.7294 94.8197 86.0796 94.8197C86.5168 94.8197 86.8744 94.9566 87.1524 95.2304C87.4304 95.502 87.5694 95.9254 87.5694 96.5005V99.7729H86.8181V96.5005C86.8181 96.1397 86.7194 95.8819 86.5221 95.727C86.3247 95.572 86.0923 95.4946 85.8249 95.4946C85.4811 95.4946 85.2148 95.5986 85.0259 95.8065C84.837 96.0124 84.7426 96.2734 84.7426 96.5896V99.7729H83.9786V96.4241C83.9786 96.1461 83.8884 95.9222 83.708 95.7524C83.5276 95.5805 83.2952 95.4946 83.0109 95.4946C82.8156 95.4946 82.6331 95.5466 82.4633 95.6506C82.2957 95.7546 82.1599 95.8989 82.0559 96.0835C81.954 96.266 81.9031 96.4772 81.9031 96.717V99.7729H81.1518ZM89.0448 99.7729V93.2535H89.7961V95.6601H89.8598C89.9149 95.5752 89.9913 95.467 90.089 95.3354C90.1887 95.2017 90.3309 95.0829 90.5155 94.9789C90.7023 94.8728 90.9548 94.8197 91.2732 94.8197C91.6849 94.8197 92.0478 94.9226 92.3618 95.1285C92.6759 95.3344 92.9211 95.6262 93.0972 96.0039C93.2733 96.3817 93.3614 96.8273 93.3614 97.3409C93.3614 97.8587 93.2733 98.3076 93.0972 98.6874C92.9211 99.0652 92.677 99.3581 92.365 99.566C92.0531 99.7719 91.6934 99.8748 91.2859 99.8748C90.9718 99.8748 90.7203 99.8228 90.5314 99.7188C90.3426 99.6127 90.1972 99.4928 90.0953 99.3591C89.9935 99.2233 89.9149 99.1108 89.8598 99.0217H89.7706V99.7729H89.0448ZM89.7834 97.3282C89.7834 97.6974 89.8375 98.0232 89.9457 98.3054C90.0539 98.5856 90.2121 98.8052 90.42 98.9644C90.628 99.1214 90.8827 99.2 91.184 99.2C91.4981 99.2 91.7602 99.1172 91.9703 98.9517C92.1825 98.784 92.3417 98.559 92.4478 98.2768C92.556 97.9924 92.6101 97.6762 92.6101 97.3282C92.6101 96.9844 92.5571 96.6745 92.451 96.3986C92.347 96.1206 92.1889 95.901 91.9767 95.7397C91.7666 95.5763 91.5024 95.4946 91.184 95.4946C90.8784 95.4946 90.6216 95.572 90.4137 95.727C90.2057 95.8798 90.0486 96.0941 89.9425 96.37C89.8364 96.6438 89.7834 96.9631 89.7834 97.3282ZM96.5606 99.8748C96.0895 99.8748 95.6831 99.7708 95.3414 99.5629C95.0019 99.3528 94.7398 99.0599 94.5552 98.6843C94.3726 98.3065 94.2814 97.8672 94.2814 97.3664C94.2814 96.8655 94.3726 96.4241 94.5552 96.0421C94.7398 95.658 94.9966 95.3588 95.3255 95.1444C95.6566 94.928 96.0428 94.8197 96.4842 94.8197C96.7389 94.8197 96.9904 94.8622 97.2387 94.9471C97.487 95.0319 97.713 95.1699 97.9167 95.3609C98.1205 95.5498 98.2828 95.8002 98.4038 96.1121C98.5247 96.4241 98.5852 96.8082 98.5852 97.2645V97.5828H94.8162V96.9334H97.8212C97.8212 96.6575 97.7661 96.4114 97.6557 96.1949C97.5475 95.9784 97.3925 95.8076 97.1909 95.6824C96.9914 95.5572 96.7559 95.4946 96.4842 95.4946C96.185 95.4946 95.9261 95.5689 95.7075 95.7174C95.491 95.8638 95.3245 96.0548 95.2077 96.2904C95.091 96.526 95.0326 96.7785 95.0326 97.048V97.481C95.0326 97.8502 95.0963 98.1633 95.2236 98.42C95.3531 98.6747 95.5324 98.8689 95.7616 99.0026C95.9908 99.1342 96.2572 99.2 96.5606 99.2C96.758 99.2 96.9363 99.1724 97.0954 99.1172C97.2567 99.0599 97.3957 98.975 97.5124 98.8625C97.6292 98.7479 97.7194 98.6057 97.783 98.436L98.5088 98.6397C98.4324 98.8859 98.304 99.1023 98.1236 99.2891C97.9433 99.4737 97.7204 99.618 97.4551 99.722C97.1899 99.8239 96.8917 99.8748 96.5606 99.8748ZM99.728 99.7729V94.8834H100.454V95.6219H100.505C100.594 95.38 100.755 95.1837 100.989 95.033C101.222 94.8823 101.485 94.807 101.778 94.807C101.833 94.807 101.902 94.808 101.985 94.8102C102.068 94.8123 102.13 94.8155 102.173 94.8197V95.5837C102.147 95.5773 102.089 95.5678 101.998 95.5551C101.909 95.5402 101.814 95.5328 101.714 95.5328C101.477 95.5328 101.265 95.5827 101.078 95.6824C100.893 95.78 100.747 95.9158 100.638 96.0899C100.532 96.2618 100.479 96.4581 100.479 96.6788V99.7729H99.728ZM106.527 95.9784L105.852 96.1694C105.809 96.057 105.747 95.9477 105.664 95.8416C105.583 95.7333 105.473 95.6442 105.333 95.5742C105.193 95.5041 105.014 95.4691 104.795 95.4691C104.496 95.4691 104.246 95.5381 104.047 95.676C103.85 95.8118 103.751 95.9848 103.751 96.1949C103.751 96.3817 103.819 96.5292 103.955 96.6374C104.09 96.7456 104.303 96.8358 104.591 96.908L105.317 97.0862C105.754 97.1923 106.08 97.3547 106.294 97.5733C106.509 97.7897 106.616 98.0688 106.616 98.4105C106.616 98.6906 106.535 98.941 106.374 99.1618C106.215 99.3825 105.992 99.5565 105.705 99.6838C105.419 99.8111 105.086 99.8748 104.706 99.8748C104.207 99.8748 103.794 99.7666 103.468 99.5501C103.141 99.3337 102.934 99.0174 102.847 98.6015L103.56 98.4232C103.628 98.6864 103.756 98.8837 103.945 99.0153C104.136 99.1469 104.385 99.2127 104.693 99.2127C105.043 99.2127 105.321 99.1384 105.527 98.9899C105.735 98.8392 105.839 98.6588 105.839 98.4487C105.839 98.2789 105.78 98.1367 105.661 98.0221C105.542 97.9054 105.36 97.8184 105.113 97.7611L104.298 97.5701C103.851 97.464 103.522 97.2995 103.312 97.0767C103.104 96.8517 103 96.5705 103 96.2331C103 95.9572 103.077 95.7132 103.232 95.5009C103.389 95.2887 103.602 95.1221 103.872 95.0012C104.144 94.8802 104.451 94.8197 104.795 94.8197C105.279 94.8197 105.659 94.9258 105.935 95.138C106.213 95.3503 106.41 95.6304 106.527 95.9784Z" fill="#F2F2F2"/>
<circle cx="48.1243" cy="117.259" r="9.68985" fill="#9F84EE"/>
<circle cx="70.411" cy="117.259" r="9.68985" fill="#EE9984"/>
<path d="M48.6253 113.665V119.303H47.7747V113.665H48.6253Z" fill="white"/>
<path d="M71.9389 115.447C71.8857 115.28 71.8141 115.13 71.7242 114.998C71.6361 114.864 71.5306 114.75 71.4076 114.657C71.2847 114.561 71.1443 114.489 70.9864 114.439C70.8304 114.389 70.6589 114.365 70.4717 114.365C70.1542 114.365 69.8679 114.446 69.6128 114.61C69.3577 114.773 69.1558 115.013 69.0072 115.328C68.8604 115.642 68.787 116.026 68.787 116.482C68.787 116.939 68.8613 117.325 69.0099 117.641C69.1586 117.956 69.3623 118.196 69.6211 118.359C69.8798 118.522 70.1744 118.604 70.5047 118.604C70.8112 118.604 71.0782 118.542 71.3058 118.417C71.5352 118.292 71.7123 118.116 71.8371 117.888C71.9637 117.659 72.027 117.389 72.027 117.079L72.2472 117.12H70.6341V116.418H72.8501V117.06C72.8501 117.533 72.7491 117.944 72.5473 118.293C72.3472 118.64 72.0701 118.908 71.7159 119.097C71.3636 119.286 70.9598 119.38 70.5047 119.38C69.9945 119.38 69.5467 119.263 69.1613 119.028C68.7778 118.793 68.4786 118.46 68.2639 118.029C68.0492 117.596 67.9418 117.082 67.9418 116.487C67.9418 116.037 68.0042 115.634 68.129 115.276C68.2538 114.918 68.4291 114.614 68.6548 114.365C68.8824 114.113 69.1494 113.922 69.4559 113.789C69.7642 113.655 70.101 113.588 70.4662 113.588C70.7708 113.588 71.0543 113.633 71.3168 113.723C71.581 113.813 71.8159 113.941 72.0215 114.106C72.2289 114.271 72.4005 114.467 72.5363 114.695C72.6721 114.921 72.7638 115.171 72.8115 115.447H71.9389Z" fill="white"/>
<rect x="14.8558" y="139.868" width="505.164" height="25.8396" rx="5.16792" fill="#ACBF40"/>
<path d="M228.748 151.347H227.376C227.336 151.122 227.264 150.923 227.159 150.749C227.054 150.573 226.923 150.424 226.766 150.301C226.61 150.179 226.431 150.087 226.23 150.026C226.032 149.962 225.818 149.931 225.588 149.931C225.179 149.931 224.817 150.033 224.502 150.239C224.186 150.442 223.939 150.741 223.76 151.135C223.582 151.526 223.492 152.004 223.492 152.57C223.492 153.145 223.582 153.629 223.76 154.023C223.941 154.415 224.188 154.711 224.502 154.911C224.817 155.11 225.178 155.209 225.584 155.209C225.809 155.209 226.02 155.179 226.216 155.121C226.414 155.059 226.591 154.97 226.748 154.853C226.907 154.735 227.04 154.591 227.148 154.42C227.258 154.248 227.334 154.052 227.376 153.832L228.748 153.84C228.697 154.197 228.586 154.532 228.414 154.845C228.245 155.158 228.024 155.435 227.75 155.675C227.476 155.912 227.155 156.098 226.788 156.233C226.421 156.365 226.014 156.431 225.566 156.431C224.905 156.431 224.316 156.278 223.797 155.972C223.278 155.666 222.87 155.225 222.571 154.647C222.272 154.07 222.123 153.377 222.123 152.57C222.123 151.76 222.274 151.067 222.575 150.492C222.876 149.915 223.285 149.473 223.804 149.167C224.323 148.861 224.91 148.708 225.566 148.708C225.984 148.708 226.374 148.767 226.733 148.885C227.093 149.002 227.413 149.175 227.695 149.402C227.976 149.627 228.207 149.904 228.389 150.232C228.572 150.557 228.692 150.929 228.748 151.347ZM229.937 156.328V150.69H231.225V151.63H231.284C231.386 151.305 231.563 151.054 231.812 150.878C232.064 150.699 232.352 150.61 232.675 150.61C232.748 150.61 232.83 150.613 232.921 150.621C233.014 150.626 233.091 150.634 233.152 150.646V151.869C233.096 151.849 233.006 151.832 232.884 151.817C232.764 151.8 232.648 151.792 232.535 151.792C232.293 151.792 232.075 151.844 231.882 151.949C231.691 152.052 231.541 152.195 231.43 152.379C231.32 152.562 231.265 152.774 231.265 153.014V156.328H229.937ZM236.298 156.438C235.733 156.438 235.245 156.321 234.834 156.086C234.425 155.849 234.111 155.513 233.89 155.08C233.67 154.645 233.56 154.132 233.56 153.542C233.56 152.962 233.67 152.453 233.89 152.015C234.113 151.575 234.424 151.232 234.823 150.988C235.222 150.741 235.69 150.617 236.229 150.617C236.576 150.617 236.904 150.673 237.212 150.786C237.523 150.896 237.797 151.067 238.034 151.3C238.274 151.532 238.463 151.828 238.6 152.188C238.737 152.545 238.805 152.971 238.805 153.465V153.873H234.184V152.977H237.532C237.529 152.723 237.474 152.496 237.366 152.298C237.259 152.097 237.108 151.94 236.915 151.825C236.724 151.71 236.501 151.652 236.247 151.652C235.975 151.652 235.737 151.718 235.531 151.85C235.326 151.98 235.165 152.151 235.05 152.364C234.938 152.575 234.88 152.806 234.878 153.058V153.84C234.878 154.167 234.938 154.449 235.058 154.684C235.178 154.916 235.345 155.095 235.561 155.22C235.776 155.342 236.028 155.403 236.317 155.403C236.51 155.403 236.685 155.376 236.841 155.322C236.998 155.266 237.134 155.184 237.249 155.077C237.364 154.969 237.451 154.835 237.509 154.676L238.75 154.816C238.672 155.144 238.523 155.43 238.302 155.675C238.085 155.917 237.806 156.105 237.465 156.24C237.125 156.372 236.736 156.438 236.298 156.438ZM241.552 156.442C241.194 156.442 240.872 156.378 240.586 156.251C240.302 156.121 240.077 155.93 239.911 155.678C239.747 155.426 239.665 155.116 239.665 154.746C239.665 154.428 239.724 154.165 239.841 153.957C239.959 153.749 240.119 153.583 240.322 153.458C240.525 153.333 240.754 153.239 241.008 153.175C241.265 153.109 241.531 153.061 241.805 153.032C242.135 152.998 242.403 152.967 242.609 152.94C242.814 152.911 242.963 152.867 243.056 152.808C243.152 152.747 243.2 152.653 243.2 152.526V152.504C243.2 152.227 243.118 152.013 242.954 151.861C242.79 151.71 242.554 151.634 242.245 151.634C241.92 151.634 241.662 151.705 241.471 151.847C241.282 151.988 241.155 152.156 241.089 152.349L239.848 152.173C239.946 151.831 240.108 151.544 240.333 151.314C240.558 151.082 240.833 150.908 241.159 150.793C241.484 150.676 241.844 150.617 242.238 150.617C242.509 150.617 242.78 150.649 243.049 150.712C243.318 150.776 243.564 150.881 243.787 151.028C244.009 151.172 244.188 151.369 244.323 151.619C244.46 151.869 244.528 152.181 244.528 152.555V156.328H243.251V155.554H243.207C243.126 155.71 243.012 155.857 242.866 155.994C242.721 156.129 242.539 156.238 242.319 156.321C242.101 156.402 241.845 156.442 241.552 156.442ZM241.897 155.466C242.163 155.466 242.394 155.413 242.59 155.308C242.786 155.2 242.936 155.058 243.042 154.882C243.149 154.706 243.203 154.514 243.203 154.306V153.641C243.162 153.676 243.091 153.707 242.99 153.737C242.892 153.766 242.782 153.792 242.66 153.814C242.538 153.836 242.417 153.856 242.297 153.873C242.177 153.89 242.073 153.904 241.985 153.917C241.786 153.944 241.609 153.988 241.452 154.049C241.296 154.11 241.172 154.196 241.082 154.306C240.991 154.413 240.946 154.553 240.946 154.724C240.946 154.969 241.035 155.154 241.214 155.278C241.392 155.403 241.62 155.466 241.897 155.466ZM248.679 150.69V151.718H245.438V150.69H248.679ZM246.239 149.34H247.567V154.632C247.567 154.811 247.594 154.948 247.648 155.043C247.704 155.136 247.778 155.2 247.868 155.234C247.959 155.269 248.059 155.286 248.169 155.286C248.252 155.286 248.328 155.28 248.397 155.267C248.468 155.255 248.522 155.244 248.558 155.234L248.782 156.273C248.711 156.298 248.61 156.324 248.478 156.354C248.348 156.383 248.189 156.4 248 156.405C247.668 156.415 247.368 156.365 247.101 156.255C246.834 156.142 246.623 155.968 246.466 155.734C246.312 155.499 246.236 155.205 246.239 154.853V149.34ZM252.226 156.438C251.661 156.438 251.173 156.321 250.761 156.086C250.353 155.849 250.038 155.513 249.818 155.08C249.598 154.645 249.488 154.132 249.488 153.542C249.488 152.962 249.598 152.453 249.818 152.015C250.041 151.575 250.352 151.232 250.75 150.988C251.149 150.741 251.618 150.617 252.156 150.617C252.504 150.617 252.832 150.673 253.14 150.786C253.451 150.896 253.725 151.067 253.962 151.3C254.202 151.532 254.39 151.828 254.527 152.188C254.664 152.545 254.733 152.971 254.733 153.465V153.873H250.112V152.977H253.459C253.457 152.723 253.402 152.496 253.294 152.298C253.186 152.097 253.036 151.94 252.843 151.825C252.652 151.71 252.429 151.652 252.175 151.652C251.903 151.652 251.664 151.718 251.459 151.85C251.253 151.98 251.093 152.151 250.978 152.364C250.865 152.575 250.808 152.806 250.806 153.058V153.84C250.806 154.167 250.865 154.449 250.985 154.684C251.105 154.916 251.273 155.095 251.488 155.22C251.704 155.342 251.956 155.403 252.244 155.403C252.438 155.403 252.613 155.376 252.769 155.322C252.926 155.266 253.062 155.184 253.177 155.077C253.292 154.969 253.378 154.835 253.437 154.676L254.678 154.816C254.599 155.144 254.45 155.43 254.23 155.675C254.012 155.917 253.733 156.105 253.393 156.24C253.053 156.372 252.664 156.438 252.226 156.438ZM260.061 156.328L257.94 148.811H259.404L260.759 154.335H260.828L262.275 148.811H263.607L265.057 154.339H265.123L266.477 148.811H267.942L265.82 156.328H264.477L262.972 151.054H262.913L261.405 156.328H260.061ZM270.711 156.438C270.16 156.438 269.683 156.317 269.28 156.075C268.876 155.833 268.563 155.494 268.34 155.058C268.12 154.623 268.01 154.114 268.01 153.531C268.01 152.949 268.12 152.439 268.34 152.001C268.563 151.563 268.876 151.223 269.28 150.98C269.683 150.738 270.16 150.617 270.711 150.617C271.262 150.617 271.739 150.738 272.142 150.98C272.546 151.223 272.858 151.563 273.078 152.001C273.301 152.439 273.412 152.949 273.412 153.531C273.412 154.114 273.301 154.623 273.078 155.058C272.858 155.494 272.546 155.833 272.142 156.075C271.739 156.317 271.262 156.438 270.711 156.438ZM270.718 155.374C271.017 155.374 271.266 155.292 271.467 155.128C271.668 154.962 271.817 154.739 271.915 154.46C272.015 154.181 272.065 153.87 272.065 153.528C272.065 153.183 272.015 152.871 271.915 152.592C271.817 152.31 271.668 152.086 271.467 151.92C271.266 151.754 271.017 151.67 270.718 151.67C270.412 151.67 270.158 151.754 269.955 151.92C269.754 152.086 269.604 152.31 269.503 152.592C269.406 152.871 269.357 153.183 269.357 153.528C269.357 153.87 269.406 154.181 269.503 154.46C269.604 154.739 269.754 154.962 269.955 155.128C270.158 155.292 270.412 155.374 270.718 155.374ZM274.54 156.328V150.69H275.828V151.63H275.887C275.99 151.305 276.166 151.054 276.416 150.878C276.668 150.699 276.955 150.61 277.278 150.61C277.352 150.61 277.434 150.613 277.524 150.621C277.617 150.626 277.694 150.634 277.755 150.646V151.869C277.699 151.849 277.61 151.832 277.487 151.817C277.368 151.8 277.251 151.792 277.139 151.792C276.897 151.792 276.679 151.844 276.485 151.949C276.295 152.052 276.144 152.195 276.034 152.379C275.924 152.562 275.869 152.774 275.869 153.014V156.328H274.54ZM279.849 154.559L279.846 152.955H280.059L282.085 150.69H283.637L281.145 153.465H280.87L279.849 154.559ZM278.638 156.328V148.811H279.967V156.328H278.638ZM282.176 156.328L280.341 153.763L281.237 152.827L283.766 156.328H282.176ZM288.979 152.181L287.767 152.313C287.733 152.19 287.673 152.075 287.587 151.968C287.504 151.86 287.392 151.773 287.25 151.707C287.108 151.641 286.934 151.608 286.729 151.608C286.452 151.608 286.22 151.668 286.031 151.788C285.845 151.908 285.753 152.063 285.756 152.254C285.753 152.418 285.813 152.551 285.936 152.654C286.061 152.757 286.266 152.841 286.552 152.907L287.514 153.113C288.047 153.228 288.444 153.41 288.703 153.66C288.965 153.909 289.097 154.236 289.1 154.64C289.097 154.995 288.993 155.308 288.788 155.579C288.585 155.849 288.302 156.059 287.94 156.211C287.578 156.362 287.162 156.438 286.692 156.438C286.002 156.438 285.446 156.294 285.026 156.005C284.605 155.714 284.354 155.309 284.273 154.79L285.569 154.665C285.627 154.92 285.752 155.112 285.943 155.242C286.134 155.371 286.382 155.436 286.688 155.436C287.004 155.436 287.257 155.371 287.448 155.242C287.641 155.112 287.738 154.952 287.738 154.761C287.738 154.599 287.676 154.466 287.551 154.361C287.428 154.256 287.238 154.175 286.978 154.119L286.017 153.917C285.476 153.804 285.076 153.614 284.816 153.348C284.557 153.079 284.428 152.738 284.431 152.327C284.428 151.98 284.523 151.679 284.714 151.424C284.907 151.168 285.175 150.969 285.517 150.83C285.862 150.688 286.26 150.617 286.71 150.617C287.371 150.617 287.891 150.758 288.27 151.039C288.652 151.32 288.888 151.701 288.979 152.181ZM290.195 158.442V150.69H291.502V151.623H291.579C291.648 151.486 291.744 151.34 291.869 151.186C291.994 151.029 292.163 150.896 292.376 150.786C292.588 150.673 292.86 150.617 293.19 150.617C293.626 150.617 294.019 150.728 294.369 150.951C294.721 151.171 295 151.498 295.205 151.931C295.413 152.362 295.517 152.89 295.517 153.517C295.517 154.136 295.416 154.662 295.213 155.095C295.01 155.528 294.733 155.858 294.383 156.086C294.033 156.313 293.637 156.427 293.194 156.427C292.871 156.427 292.603 156.373 292.39 156.266C292.177 156.158 292.006 156.028 291.876 155.877C291.749 155.723 291.65 155.577 291.579 155.44H291.524V158.442H290.195ZM291.498 153.509C291.498 153.874 291.55 154.193 291.652 154.467C291.758 154.741 291.908 154.955 292.104 155.11C292.302 155.261 292.542 155.337 292.823 155.337C293.117 155.337 293.363 155.259 293.561 155.102C293.759 154.943 293.909 154.727 294.009 154.453C294.112 154.176 294.163 153.862 294.163 153.509C294.163 153.159 294.113 152.849 294.013 152.577C293.912 152.305 293.763 152.092 293.565 151.938C293.367 151.784 293.119 151.707 292.823 151.707C292.539 151.707 292.298 151.782 292.1 151.931C291.902 152.08 291.752 152.289 291.649 152.559C291.548 152.828 291.498 153.145 291.498 153.509ZM298.278 156.442C297.92 156.442 297.598 156.378 297.312 156.251C297.028 156.121 296.803 155.93 296.637 155.678C296.473 155.426 296.391 155.116 296.391 154.746C296.391 154.428 296.45 154.165 296.567 153.957C296.685 153.749 296.845 153.583 297.048 153.458C297.251 153.333 297.48 153.239 297.734 153.175C297.991 153.109 298.257 153.061 298.531 153.032C298.861 152.998 299.129 152.967 299.335 152.94C299.54 152.911 299.689 152.867 299.782 152.808C299.878 152.747 299.926 152.653 299.926 152.526V152.504C299.926 152.227 299.844 152.013 299.68 151.861C299.516 151.71 299.28 151.634 298.971 151.634C298.646 151.634 298.388 151.705 298.197 151.847C298.008 151.988 297.881 152.156 297.815 152.349L296.574 152.173C296.672 151.831 296.834 151.544 297.059 151.314C297.284 151.082 297.559 150.908 297.885 150.793C298.21 150.676 298.57 150.617 298.964 150.617C299.235 150.617 299.506 150.649 299.775 150.712C300.044 150.776 300.29 150.881 300.513 151.028C300.735 151.172 300.914 151.369 301.049 151.619C301.186 151.869 301.254 152.181 301.254 152.555V156.328H299.977V155.554H299.933C299.852 155.71 299.738 155.857 299.592 155.994C299.447 156.129 299.265 156.238 299.045 156.321C298.827 156.402 298.571 156.442 298.278 156.442ZM298.623 155.466C298.889 155.466 299.12 155.413 299.316 155.308C299.512 155.2 299.662 155.058 299.768 154.882C299.875 154.706 299.929 154.514 299.929 154.306V153.641C299.888 153.676 299.817 153.707 299.716 153.737C299.618 153.766 299.508 153.792 299.386 153.814C299.264 153.836 299.142 153.856 299.023 153.873C298.903 153.89 298.799 153.904 298.711 153.917C298.512 153.944 298.335 153.988 298.178 154.049C298.022 154.11 297.898 154.196 297.808 154.306C297.717 154.413 297.672 154.553 297.672 154.724C297.672 154.969 297.761 155.154 297.94 155.278C298.118 155.403 298.346 155.466 298.623 155.466ZM305.049 156.438C304.487 156.438 304.003 156.315 303.6 156.068C303.198 155.82 302.889 155.479 302.671 155.043C302.456 154.605 302.348 154.101 302.348 153.531C302.348 152.959 302.458 152.453 302.678 152.015C302.899 151.575 303.209 151.232 303.611 150.988C304.014 150.741 304.491 150.617 305.042 150.617C305.5 150.617 305.905 150.701 306.257 150.87C306.612 151.037 306.894 151.273 307.105 151.579C307.315 151.882 307.435 152.237 307.465 152.643H306.195C306.143 152.371 306.021 152.145 305.828 151.964C305.637 151.781 305.381 151.689 305.06 151.689C304.789 151.689 304.55 151.762 304.345 151.909C304.139 152.053 303.979 152.261 303.864 152.533C303.751 152.805 303.695 153.13 303.695 153.509C303.695 153.893 303.751 154.224 303.864 154.5C303.976 154.774 304.134 154.986 304.337 155.135C304.543 155.282 304.784 155.355 305.06 155.355C305.256 155.355 305.431 155.319 305.585 155.245C305.742 155.17 305.873 155.061 305.978 154.919C306.083 154.777 306.155 154.604 306.195 154.401H307.465C307.433 154.8 307.315 155.154 307.112 155.462C306.909 155.768 306.633 156.008 306.283 156.181C305.933 156.353 305.522 156.438 305.049 156.438ZM311.051 156.438C310.486 156.438 309.998 156.321 309.587 156.086C309.178 155.849 308.864 155.513 308.644 155.08C308.423 154.645 308.313 154.132 308.313 153.542C308.313 152.962 308.423 152.453 308.644 152.015C308.866 151.575 309.177 151.232 309.576 150.988C309.975 150.741 310.443 150.617 310.982 150.617C311.329 150.617 311.657 150.673 311.965 150.786C312.276 150.896 312.55 151.067 312.787 151.3C313.027 151.532 313.216 151.828 313.353 152.188C313.49 152.545 313.558 152.971 313.558 153.465V153.873H308.937V152.977H312.285C312.282 152.723 312.227 152.496 312.119 152.298C312.012 152.097 311.861 151.94 311.668 151.825C311.477 151.71 311.254 151.652 311 151.652C310.728 151.652 310.49 151.718 310.284 151.85C310.079 151.98 309.918 152.151 309.803 152.364C309.691 152.575 309.633 152.806 309.631 153.058V153.84C309.631 154.167 309.691 154.449 309.811 154.684C309.931 154.916 310.098 155.095 310.314 155.22C310.529 155.342 310.781 155.403 311.07 155.403C311.263 155.403 311.438 155.376 311.595 155.322C311.751 155.266 311.887 155.184 312.002 155.077C312.117 154.969 312.204 154.835 312.263 154.676L313.503 154.816C313.425 155.144 313.276 155.43 313.055 155.675C312.838 155.917 312.559 156.105 312.219 156.24C311.878 156.372 311.489 156.438 311.051 156.438Z" fill="#1A1A1A"/>
</svg>
