<svg width="40" height="45" viewBox="0 0 40 45" fill="none" xmlns="http://www.w3.org/2000/svg">
<path d="M38.82 7.00182V33.2275H29.8126C29.3348 33.2275 28.8765 33.4249 28.5385 33.7765C28.2006 34.128 28.0108 34.6047 28.0108 35.1018V44.4698H2.80185C2.56516 44.4701 2.33074 44.4218 2.11202 44.3277C1.8933 44.2336 1.69456 44.0955 1.5272 43.9214C1.35983 43.7473 1.22712 43.5406 1.13665 43.313C1.04619 43.0855 0.999753 42.8417 1 42.5955V7.00182C1 6.50504 1.18958 6.02859 1.52708 5.67713C1.86459 5.32567 2.32241 5.12796 2.79997 5.12744H37.0182C37.2548 5.12718 37.4893 5.17549 37.708 5.2696C37.9267 5.3637 38.1254 5.50176 38.2928 5.67586C38.4602 5.84996 38.5929 6.0567 38.6833 6.28422C38.7738 6.51175 38.8202 6.7556 38.82 7.00182Z" fill="#0A9011"/>
<path d="M38.8181 33.2266L28.0127 44.4689V35.1009C28.0132 34.6042 28.2032 34.1279 28.5411 33.7768C28.879 33.4257 29.337 33.2285 29.8145 33.2285L38.8181 33.2266Z" fill="#0BBE14"/>
<path d="M6.40176 1.38037V9.81018M15.4072 1.38037V9.81018M24.4108 1.38037V9.81018M33.4163 1.38037V9.81018M15.4072 14.4952L10.0036 20.1163L7.30363 17.3038M15.4072 24.7993L10.0036 30.4205L7.30363 27.608M19.0091 18.242H30.7145M19.0091 27.608H30.7145" stroke="#0ADF38" stroke-linecap="round" stroke-linejoin="round"/>
<path d="M38.82 7.00182V33.2275H29.8126C29.3348 33.2275 28.8765 33.4249 28.5385 33.7765C28.2006 34.128 28.0108 34.6047 28.0108 35.1018V44.4698H2.80185C2.56516 44.4701 2.33074 44.4218 2.11202 44.3277C1.8933 44.2336 1.69456 44.0955 1.5272 43.9214C1.35983 43.7473 1.22712 43.5406 1.13665 43.3131C1.04619 43.0855 0.999753 42.8417 1 42.5954V7.00182C1 6.50504 1.18958 6.02859 1.52708 5.67713C1.86459 5.32567 2.32241 5.12796 2.79997 5.12744H37.0182C37.2548 5.12718 37.4893 5.17549 37.708 5.2696C37.9267 5.3637 38.1254 5.50176 38.2928 5.67586C38.4602 5.84996 38.5929 6.0567 38.6833 6.28422C38.7738 6.51175 38.8202 6.7556 38.82 7.00182Z" stroke="#0ADF38" stroke-linecap="round" stroke-linejoin="round"/>
<path d="M38.8181 33.2266L28.0127 44.4689V35.1009C28.0132 34.6042 28.2032 34.1279 28.5411 33.7768C28.879 33.4257 29.337 33.2285 29.8145 33.2285L38.8181 33.2266Z" stroke="#0ADF38" stroke-linecap="round" stroke-linejoin="round"/>
</svg>
