<svg width="119" height="106" viewBox="0 0 119 106" fill="none" xmlns="http://www.w3.org/2000/svg">
<path d="M79.9001 36.73C71.5301 36.78 63.0101 36.39 55.0401 34.17C47.0701 31.95 40.0401 27.79 33.6401 22.92C29.4501 19.75 25.6401 17.23 20.1901 17.61C14.8705 17.8952 9.78361 19.883 5.68006 23.28C-1.24994 29.34 -0.199941 40.5 2.57006 48.43C6.73006 60.3 19.3901 68.5 30.1501 73.92C42.5801 80.13 56.2301 83.73 69.9301 85.81C81.9301 87.63 97.3501 88.96 107.75 81.12C117.3 73.92 119.92 57.48 117.58 46.38C117.013 43.0979 115.267 40.1358 112.67 38.05C105.96 33.15 95.9501 36.42 88.4101 36.59C85.6101 36.65 82.7601 36.71 79.9001 36.73Z" fill="#272933"/>
<path d="M59.42 105.26C79.6943 105.26 96.13 104.235 96.13 102.97C96.13 101.705 79.6943 100.68 59.42 100.68C39.1456 100.68 22.71 101.705 22.71 102.97C22.71 104.235 39.1456 105.26 59.42 105.26Z" fill="#272933"/>
<path d="M6.78005 72.74C7.32129 72.74 7.76005 72.3013 7.76005 71.76C7.76005 71.2188 7.32129 70.78 6.78005 70.78C6.23881 70.78 5.80005 71.2188 5.80005 71.76C5.80005 72.3013 6.23881 72.74 6.78005 72.74Z" fill="#4A5059"/>
<path d="M49.02 85.17V89.48" stroke="#4A5059" stroke-linecap="round" stroke-linejoin="round"/>
<path d="M46.87 87.33H51.17" stroke="#4A5059" stroke-linecap="round" stroke-linejoin="round"/>
<path d="M100.65 17.39H18.1799C16.0481 17.39 14.3199 19.1182 14.3199 21.25V77.82C14.3199 79.9518 16.0481 81.68 18.1799 81.68H100.65C102.782 81.68 104.51 79.9518 104.51 77.82V21.25C104.51 19.1182 102.782 17.39 100.65 17.39Z" fill="#2D333E" stroke="#4A5059" stroke-miterlimit="10"/>
<path d="M92.35 34.49H26.47C24.9457 34.49 23.71 35.7257 23.71 37.25V73.2C23.71 74.7243 24.9457 75.96 26.47 75.96H92.35C93.8743 75.96 95.11 74.7243 95.11 73.2V37.25C95.11 35.7257 93.8743 34.49 92.35 34.49Z" fill="#2D333E" stroke="#4A5059" stroke-miterlimit="10"/>
<path d="M104.5 28.22V21.22C104.501 20.7122 104.402 20.2092 104.209 19.7397C104.016 19.2703 103.731 18.8436 103.373 18.4841C103.014 18.1246 102.588 17.8394 102.119 17.6448C101.65 17.4501 101.148 17.35 100.64 17.35H18.18C17.6722 17.35 17.1695 17.4501 16.7005 17.6448C16.2315 17.8394 15.8055 18.1246 15.447 18.4841C15.0884 18.8436 14.8043 19.2703 14.6109 19.7397C14.4175 20.2092 14.3186 20.7122 14.32 21.22V28.22H104.5Z" fill="#4A5059"/>
<path d="M41.42 10.9V23.35" stroke="#2D333E" stroke-miterlimit="10"/>
<path d="M77.41 10.9V23.35" stroke="#2D333E" stroke-miterlimit="10"/>
<path d="M90.7901 11.73C91.3313 11.73 91.7701 11.2913 91.7701 10.75C91.7701 10.2088 91.3313 9.77002 90.7901 9.77002C90.2488 9.77002 89.8101 10.2088 89.8101 10.75C89.8101 11.2913 90.2488 11.73 90.7901 11.73Z" fill="#4A5059"/>
<path d="M29.5499 12.59C30.0912 12.59 30.5299 12.1512 30.5299 11.61C30.5299 11.0688 30.0912 10.63 29.5499 10.63C29.0087 10.63 28.5699 11.0688 28.5699 11.61C28.5699 12.1512 29.0087 12.59 29.5499 12.59Z" fill="#4A5059"/>
<path d="M54.63 5.12V9.41999" stroke="#4A5059" stroke-linecap="round" stroke-linejoin="round"/>
<path d="M52.48 7.27002H56.78" stroke="#4A5059" stroke-linecap="round" stroke-linejoin="round"/>
<path d="M9.55005 1.23999V5.53999" stroke="#4A5059" stroke-linecap="round" stroke-linejoin="round"/>
<path d="M7.40002 3.39001H11.71" stroke="#4A5059" stroke-linecap="round" stroke-linejoin="round"/>
<path d="M46.91 64.5C47.5377 61.6522 49.1189 59.1041 51.3921 57.2774C53.6652 55.4507 56.4939 54.455 59.41 54.455C62.3262 54.455 65.1549 55.4507 67.428 57.2774C69.7011 59.1041 71.2824 61.6522 71.91 64.5" fill="#2D333E"/>
<path d="M46.91 64.5C47.5377 61.6522 49.1189 59.1041 51.3921 57.2774C53.6652 55.4507 56.4939 54.455 59.41 54.455C62.3262 54.455 65.1549 55.4507 67.428 57.2774C69.7011 59.1041 71.2824 61.6522 71.91 64.5" stroke="#4A5059" stroke-miterlimit="10"/>
<path d="M73.54 49.55C74.5231 49.55 75.32 48.7531 75.32 47.77C75.32 46.7869 74.5231 45.99 73.54 45.99C72.5569 45.99 71.76 46.7869 71.76 47.77C71.76 48.7531 72.5569 49.55 73.54 49.55Z" fill="#4A5059"/>
<path d="M45.29 49.55C46.2731 49.55 47.07 48.7531 47.07 47.77C47.07 46.7869 46.2731 45.99 45.29 45.99C44.3069 45.99 43.51 46.7869 43.51 47.77C43.51 48.7531 44.3069 49.55 45.29 49.55Z" fill="#4A5059"/>
</svg>
