<svg width="118" height="111" viewBox="0 0 118 111" fill="none" xmlns="http://www.w3.org/2000/svg">
<path d="M79.4562 42.09C71.0762 42.14 62.5662 41.75 54.5962 39.53C46.6262 37.31 39.5962 33.15 33.1962 28.28C28.9962 25.11 25.1962 22.59 19.7462 22.97C14.4259 23.2517 9.33794 25.2399 5.23621 28.64C-1.69379 34.7 -0.643786 45.86 2.11621 53.79C6.28621 65.66 18.9562 73.86 29.7062 79.28C42.1362 85.49 55.7862 89.09 69.4862 91.17C81.4862 92.99 96.8962 94.32 107.296 86.48C116.856 79.28 119.476 62.84 117.136 51.74C116.566 48.4568 114.816 45.4947 112.216 43.41C105.506 38.51 95.4962 41.78 87.9562 41.95C85.1562 42.01 82.3162 42.07 79.4562 42.09Z" fill="#272933"/>
<path d="M58.9662 110.62C79.2406 110.62 95.6762 109.595 95.6762 108.33C95.6762 107.065 79.2406 106.04 58.9662 106.04C38.6919 106.04 22.2562 107.065 22.2562 108.33C22.2562 109.595 38.6919 110.62 58.9662 110.62Z" fill="#272933"/>
<path d="M96.4862 29.87V34.18" stroke="#4A5059" stroke-linecap="round" stroke-linejoin="round"/>
<path d="M94.3262 32.03H98.6362" stroke="#4A5059" stroke-linecap="round" stroke-linejoin="round"/>
<path d="M24.2562 66.09V70.39" stroke="#4A5059" stroke-linecap="round" stroke-linejoin="round"/>
<path d="M22.1062 68.24H26.4162" stroke="#4A5059" stroke-linecap="round" stroke-linejoin="round"/>
<path d="M18.2262 11.95V16.25" stroke="#4A5059" stroke-linecap="round" stroke-linejoin="round"/>
<path d="M16.0762 14.1H20.3762" stroke="#4A5059" stroke-linecap="round" stroke-linejoin="round"/>
<path d="M65.0962 1.96C65.6374 1.96 66.0762 1.52124 66.0762 0.980001C66.0762 0.438762 65.6374 0 65.0962 0C64.555 0 64.1162 0.438762 64.1162 0.980001C64.1162 1.52124 64.555 1.96 65.0962 1.96Z" fill="#4A5059"/>
<path d="M62.7462 97.57C63.2875 97.57 63.7262 97.1312 63.7262 96.59C63.7262 96.0487 63.2875 95.61 62.7462 95.61C62.205 95.61 61.7662 96.0487 61.7662 96.59C61.7662 97.1312 62.205 97.57 62.7462 97.57Z" fill="#4A5059"/>
<path d="M83.7929 6.64512L26.7598 12.5691C25.4579 12.7043 24.5121 13.8694 24.6473 15.1713L32.4475 90.2673C32.5827 91.5692 33.7477 92.515 35.0496 92.3797L92.0828 86.4557C93.3847 86.3205 94.3305 85.1555 94.1953 83.8536L86.3951 8.75759C86.2599 7.45568 85.0949 6.5099 83.7929 6.64512Z" fill="#2D333E" stroke="#4A5059" stroke-miterlimit="10"/>
<path d="M81.3387 10.1214L29.8656 15.4679C28.5637 15.6031 27.6179 16.7681 27.7532 18.07L34.8074 85.9846C34.9426 87.2866 36.1076 88.2323 37.4096 88.0971L88.8826 82.7507C90.1846 82.6154 91.1303 81.4504 90.9951 80.1485L83.9409 12.2339C83.8056 10.9319 82.6406 9.98616 81.3387 10.1214Z" fill="#2D333E" stroke="#4A5059" stroke-miterlimit="10"/>
<path d="M72.4662 13.44L71.6662 5.73998C71.65 5.57904 71.6022 5.42289 71.5255 5.28046C71.4488 5.13803 71.3448 5.01212 71.2194 4.90995C71.094 4.80777 70.9497 4.73133 70.7947 4.68501C70.6397 4.63868 70.4771 4.62338 70.3162 4.63998L60.7662 5.63998C60.5579 4.13104 59.7712 2.76216 58.5722 1.82256C57.3733 0.882954 55.856 0.446206 54.341 0.604587C52.826 0.762967 51.4319 1.50407 50.4533 2.67133C49.4746 3.83858 48.988 5.34057 49.0962 6.85998L39.5362 7.85998C39.3757 7.87617 39.2199 7.92405 39.078 8.00085C38.936 8.07766 38.8108 8.18186 38.7094 8.30742C38.608 8.43298 38.5325 8.5774 38.4874 8.73233C38.4422 8.88726 38.4282 9.04961 38.4462 9.20998L39.2462 16.91C39.2625 17.0709 39.3103 17.2271 39.387 17.3695C39.4636 17.5119 39.5676 17.6378 39.693 17.74C39.8184 17.8422 39.9628 17.9186 40.1177 17.965C40.2727 18.0113 40.4353 18.0266 40.5962 18.01L71.3762 14.81C71.5382 14.7926 71.695 14.7433 71.8377 14.6648C71.9805 14.5863 72.1062 14.4802 72.2076 14.3528C72.309 14.2253 72.384 14.079 72.4284 13.9223C72.4728 13.7656 72.4857 13.6017 72.4662 13.44Z" fill="#4A5059"/>
<path d="M47.7162 60.3799C48.0484 57.4171 49.3837 54.6569 51.5004 52.5572C53.6172 50.4576 56.3881 49.1448 59.3536 48.8365C62.3191 48.5283 65.3008 49.2432 67.8041 50.8627C70.3073 52.4821 72.1817 54.9087 73.1162 57.7399" stroke="#4A5059" stroke-linecap="round" stroke-linejoin="round"/>
<path d="M49.1662 37.48L44.3862 43.38" stroke="#4A5059" stroke-linecap="round" stroke-linejoin="round"/>
<path d="M43.8262 38.04L49.7262 42.82" stroke="#4A5059" stroke-linecap="round" stroke-linejoin="round"/>
<path d="M72.3261 35.08L67.5461 40.97" stroke="#4A5059" stroke-linecap="round" stroke-linejoin="round"/>
<path d="M66.9862 35.63L72.8862 40.42" stroke="#4A5059" stroke-linecap="round" stroke-linejoin="round"/>
</svg>
